<?xml version="1.0" encoding="utf-8"?>
<!-- Generator: Adobe Illustrator 24.3.0, SVG Export Plug-In . SVG Version: 6.00 Build 0)  -->
<svg version="1.1" id="Layer_1" xmlns="http://www.w3.org/2000/svg" xmlns:xlink="http://www.w3.org/1999/xlink" x="0px" y="0px"
	 viewBox="0 0 288 288" style="enable-background:new 0 0 288 288;" xml:space="preserve">
<style type="text/css">
	.st0{fill:#65833C;}
	.st1{fill:#F89B6C;}
	.st2{fill:#FFFFFF;}
</style>
<g>
	<g>
		<path class="st0" d="M228.1,87.4c1-2.1,2-4.2,1.7-6.5s-2.2-4.5-4.4-4.2c-1.7,0.2-3,1.9-3.3,3.6c-0.3,1.7,0,3.5,0.4,5.2
			c0.2,1,0.5,2,0.7,3c0.2,0.9,0.4,1.9,0.9,2.7c1,1.6,3,2.3,4.9,2.8c2.5,0.7,5.1,1.2,7.6,1c2.6-0.1,5.2-1,7.1-2.7
			c0.8-0.7,1.5-1.8,1.1-2.8c-0.3-0.7-1-1.1-1.7-1.3c-5.4-2.2-11.3-1.4-16.3,1.4C227.3,89,227.7,88.2,228.1,87.4z"/>
		<path class="st0" d="M213.6,86.1c-1.7-2-5.2-1.2-6.7,0.9c-1.4,2.2-1.2,5.1-0.3,7.5c0.9,2.4,2.5,4.5,3.6,6.9
			c0.2,0.4,0.4,0.8,0.7,1.2c0.3,0.3,0.6,0.5,1,0.7c3.4,1.7,7,3,10.7,3.9c1.7,0.4,3.4,0.7,5,0.2c1.6-0.5,3-2.2,2.6-3.9
			c-0.3-1.3-1.5-2.1-2.6-2.7c-2.2-1.2-4.5-1.9-7-2.2c-1.5-0.2-5.4,0.6-6.7-0.5C211.2,95.5,216.7,89.6,213.6,86.1z"/>
		<path class="st0" d="M198.1,100.7c0-0.6,0-1.2-0.3-1.8c-0.5-1.2-1.9-1.7-3.1-1.8c-3.9-0.3-7.7,3.1-7.8,7.1c-0.1,2.5,1.2,4.9,2.7,7
			c1,1.4,2.1,2.7,3.3,3.8c4.9,4.3,11.8,5.3,18.3,6.1c1.9,0.2,4.3,0.1,4.9-1.7c0.4-1.2-0.4-2.5-1.3-3.4c-3.5-3.6-8.5-5.1-13.5-4.7
			c-2.9,0.3-3.5,1.4-4.3-1.5C196.4,107.4,198.1,103.2,198.1,100.7z"/>
		<path class="st0" d="M165.7,35.6c-1.6-1.7-4-2.5-6.3-2.4c-0.7,0-1.4,0.2-1.9,0.5c-1.4,0.9-1.6,3.1-0.7,4.5
			c0.8,1.5,2.3,2.4,3.8,3.3c2.9,1.8,5.8,3.6,8.7,5.3c0.2,0.1,0.4,0.3,0.7,0.3c0.3,0.1,0.6-0.1,0.9-0.2c4.1-1.4,8.4-2.9,11.6-5.9
			c1.2-1.1,2.2-2.5,1.9-4.1c-0.4-1.8-2.4-2.6-4.2-2.8c-5.4-0.5-9.1,2.7-12.2,6.4C167.7,38.8,167.1,37,165.7,35.6z"/>
		<path class="st0" d="M198.6,45.8c0.1-2.6,1.5-5,3.4-6.8c1.9-1.8,4.2-3.1,6.5-4.3c0.5,3.7,0.9,7.4-0.1,11
			C206.4,52.3,198.3,55.2,198.6,45.8z"/>
		<path class="st0" d="M190.5,62.6c0.6,4.3,1.4,9.1,4.7,11.9c2.3,2,5.6,2.6,8.6,2.4c3.1-0.2,6-1.2,8.9-2.3c0.2-0.1,0.5-0.2,0.6-0.4
			c0.1-0.3,0-0.6-0.2-0.8c-2.1-3-5.8-4.8-9.4-4.4c-2.8,0.2-5.3,1.7-7.1,3.8C196.9,68.6,194.6,64.2,190.5,62.6z"/>
		<path class="st0" d="M152.5,50c-0.2,0.2-0.5,0.4-0.6,0.7c-0.2,0.5,0.1,1.1,0.4,1.6c2.8,4.2,7.7,6.9,12.7,7c1.3,0,2.6-0.1,3.8-0.3
			c6.4-0.8,13.1-2,17.9-6.3c0.5-0.4,0.9-0.9,1-1.5c0.2-1.4-1.3-2.3-2.6-2.7c-2.9-0.8-6.1-0.5-8.8,0.7c-2.6,1.1-4.9,4.4-7.7,4.4
			C162.9,53.5,159.4,44.2,152.5,50z"/>
		<path class="st0" d="M125,74.8c0-0.8,0-1.5,0.3-2.2c0.6-1.4,2.2-2.1,3.7-2c1.5,0.2,2.8,1.1,3.9,2.1
			C142.7,82.6,125.2,87.8,125,74.8z"/>
		<path class="st0" d="M143.8,73.2c0.9-0.6,2.2-1.1,3.1-0.5c0.5,0.3,0.9,0.9,1.1,1.4c1.1,2.7,0.1,6-1.8,8.2c-2.5,2.8-8,6.6-8,0.7
			C138.3,79.2,140.7,75.2,143.8,73.2z"/>
		<path class="st0" d="M127.8,87c-1.2,0.9-2,2.5-1.5,3.9c0.4,1.2,1.6,1.9,2.8,2.4c2.9,1.1,11.2,1.7,10.7-3.2
			C139.3,85.5,130.7,85,127.8,87z"/>
		<path class="st0" d="M149.6,84.1c1.4-0.5,3.1-0.4,4.2,0.6c0.7,0.6,1.1,1.6,1.2,2.5c0.7,4.5-4.8,10-9.3,7.5
			C141,92,146.1,85.4,149.6,84.1z"/>
		<path class="st0" d="M139.4,100.1c-2.4-0.3-5,0.2-6.8,1.8c-0.6,0.6-1.2,1.3-1.3,2.1c-0.1,0.8,0.1,1.6,0.5,2.3
			c1.8,3.4,6.6,4.4,10.1,2.9C148.6,106.3,145,100.8,139.4,100.1z"/>
		<path class="st0" d="M148.7,102.1c1.1-1.2,2.8-2.2,4.4-1.7c1.4,0.6,2,2.3,2.2,3.8c0.2,2.4-0.3,4.8-1.4,6.8c-1.5,2.8-5.8,6.3-8,2.4
			C144.1,110.4,146.6,104.4,148.7,102.1z"/>
		<path class="st0" d="M159.1,62c-2-0.1-4.3,0.8-4.6,2.8c-0.3,2,1.8,3.6,3.6,4.4c2.5,1.1,9.3,4.1,9.3-0.8
			C167.3,64.9,162,62.1,159.1,62z"/>
		<path class="st0" d="M176.8,71.8c0.5-0.8,0.8-2,0.1-2.6c-0.3-0.2-0.6-0.3-0.9-0.4c-1.5-0.4-3.2-0.8-4.6,0c-1.8,1-4.8,7.5-2.3,9
			C171.4,79.3,175.8,73.5,176.8,71.8z"/>
		<path class="st0" d="M169.5,82.9c0-1.8-1.1-3.4-2.5-4.4c-1.4-1-3.1-1.6-4.8-2.2c-1-0.3-2.1-0.7-3.1-0.2c-0.5,0.3-0.9,0.8-1.2,1.4
			c-1.2,2.7,0.3,6.1,2.9,7.5c2.6,1.5,5.8,1.3,8.6,0.3"/>
		<path class="st0" d="M168.5,89.9c4,1.1,8.5-1,10.4-4.6c0.2-0.4,0.3-0.7,0.4-1.2c0.2-1.4-1.1-2.7-2.5-2.9c-1.4-0.2-2.8,0.4-3.9,1.2
			c-2.2,1.7-3.6,4.6-3.5,7.4"/>
		<path class="st0" d="M175.6,89.8c1.2-0.5,2.8-0.7,3.8,0.1c1.1,0.9,1,2.8,0.4,4.1c-1.4,2.7-4.3,4.1-7.1,5.3
			c-0.8,0.3-1.7,0.7-2.6,0.6C164.2,99.2,173.6,90.6,175.6,89.8z"/>
		<path class="st0" d="M166.2,98.6c-0.6-1.2-1.2-2.4-2.3-3.2c-1-0.8-2.6-1.1-3.7-0.3c-1,0.7-1.3,2.1-1.2,3.3
			C159.7,105.5,171.8,109.6,166.2,98.6z"/>
		<path class="st0" d="M178.1,112.4c-2.9-1.3-6.5,1.2-7.3,4.3c-1.1,4.4,5.1,16.1,10.6,11.8C185.6,125.4,182.2,114.2,178.1,112.4z"/>
		<path class="st0" d="M197.4,127.7c1.3,0,2.6,0.1,3.7,0.8c1.7,1.1,2.2,3.6,1.5,5.5c-0.7,1.9-2.3,3.4-4.1,4.5
			c-2.1,1.3-4.5,2.1-7,2.1c-3.9-0.1-9.4-4.1-7.3-8.6C186,128.1,193.9,127.7,197.4,127.7z"/>
		<path class="st0" d="M163.8,120.4c1.4-2.5,1.3-5.8-0.3-8.2c-0.8-1.3-2.2-2.3-3.7-2.2c-1.1,0.1-2.1,0.7-2.8,1.5
			c-2.7,3-1.8,7.8,0.5,11c0.9,1.2,2,2.3,3.4,2.5c1.4,0.2,3.1-0.8,3.1-2.3"/>
		<path class="st0" d="M200.3,143.6c2.4-2,5.7-2.8,8.8-2.4c0.7,0.1,1.5,0.3,2,0.9c0.4,0.4,0.5,1,0.6,1.5c0.2,1.8-0.7,3.6-2.1,4.9
			c-1.4,1.2-3.1,1.9-4.9,2.4c-1.9,0.6-6.4,2.2-7.8,0C195.3,148.7,198.8,144.8,200.3,143.6z"/>
		<path class="st0" d="M194,154.1c0.2-2.3,0-4.7-0.7-6.9c-0.1-0.5-0.3-0.9-0.6-1.3c-0.8-1-2.5-1-3.5-0.2c-1.1,0.8-1.6,2-2,3.3
			c-0.2,0.9-0.4,1.8-0.2,2.7c0.4,2.5,3.1,3.9,5.4,5"/>
		<path class="st0" d="M191.9,158.2c-0.4,0.5-0.8,1.2-0.8,1.8c0.1,1.3,1.6,2,2.8,2.2c2.8,0.5,5.7,0.2,8.5-0.3
			c4.2-0.7,6.7-4.6,2.1-6.5C200.7,154,194.5,155.1,191.9,158.2z"/>
		<path class="st0" d="M179.5,158.7c-0.4-1.7-0.6-3.6,0-5.2c0.6-1.7,2.3-3,4-2.7c1.4,0.2,2.5,1.5,3.1,2.8c1.4,3,1.1,6.7-0.8,9.4
			C182.1,168.3,180.3,162.4,179.5,158.7z"/>
		<path class="st0" d="M104.8,70.4c0.1-0.9,0.2-1.8,0.8-2.5c0.9-1,2.5-0.9,3.6-0.2c1.1,0.7,1.7,2,2.1,3.2
			C115,81.5,104,80.4,104.8,70.4z"/>
		<path class="st0" d="M120.4,75.3c1.4,0.1,2.6,1.1,3.3,2.4c0.6,1.3,0.8,2.7,0.8,4.1c0.1,4-3.6,15-8.5,8.5
			C113.3,86.7,114.4,75,120.4,75.3z"/>
		<path class="st0" d="M104.1,82.8c-1.9-0.4-4.2-0.2-5.2,1.4c-1.2,2,0.4,4.5,2.1,5.9c2.1,1.7,9.3,5.2,11,1.3
			C113.7,87.8,106.8,83.4,104.1,82.8z"/>
		<path class="st0" d="M120.8,95.9c1.1-1.7,3.1-3.4,5-2.8c1.7,0.5,2.5,2.4,2.6,4.2c0.2,1.9-0.2,3.9-0.9,5.6c-0.9,2-2.6,3.8-4.8,4.3
			C114.9,108.9,118.8,99,120.8,95.9z"/>
		<path class="st0" d="M117,106.5c-1.1-3.6-4-6.7-7.6-7.9c-0.9-0.3-1.9-0.5-2.7,0.1c-0.7,0.5-0.9,1.5-0.8,2.4
			c0.1,2.9,1.9,5.6,4.5,6.9c2.6,1.3,5.8,1,8.2-0.6"/>
		<path class="st0" d="M105.6,112.9c-5.5,4.6,5.3,13.2,9.7,7.6C120.3,114.5,110.6,108.8,105.6,112.9z"/>
		<path class="st0" d="M125.2,112.9c1.3-1.5,3.2-2.9,5.1-2.5c2.1,0.5,3.1,3.2,2.5,5.3c-0.6,2.1-2.3,3.7-4.1,5c-2,1.5-6.8,5-8,1.7
			C119.8,120.1,123.7,114.7,125.2,112.9z"/>
		<path class="st0" d="M81.8,98.6c-0.3-1.5-0.4-3.1,0-4.6c0.4-1.5,1.5-2.9,2.9-3.4c2.3-0.8,4.8,0.6,6.1,2.6c1.2,2,1.4,4.5,1.5,6.9
			c0,3.3,0.4,10-4.3,8.2C84.7,107.2,82.4,101.7,81.8,98.6z"/>
		<path class="st0" d="M93,101.4c0.9-1.7,2-3.4,3.6-4.4c0.7-0.4,1.5-0.6,2.3-0.4c1.1,0.3,1.7,1.6,1.9,2.8c0.6,3.7-1.6,9.5-5.5,10.8
			C89.2,112.2,91.5,104.4,93,101.4z"/>
		<path class="st0" d="M88.1,114.3c-1.8-1.3-4.1-2.2-6.3-1.7c-2.2,0.5-4.1,2.5-3.9,4.7c0.1,1.7,1.2,3.1,2.4,4.3
			c1.7,1.7,3.6,3.3,5.9,3.8C95.1,127.4,92.6,117.6,88.1,114.3z"/>
		<path class="st0" d="M96.1,119.7c0.3-1.3,0.6-2.7,1.5-3.7c0.8-1.1,2.2-1.8,3.5-1.4c2.1,0.6,2.7,3.3,2.5,5.5
			c-0.2,2.5-3.3,12.7-7.6,10.8C93.6,129.7,95.7,121.5,96.1,119.7z"/>
		<path class="st0" d="M100.6,143.3c-0.5-3.4,1.4-8,3.1-10c1.2-1.3,2.9-2.5,4.6-2c0.8,0.3,1.5,0.9,2,1.6c2.4,3.1,2.5,7.9,0.2,11.2
			c-3.6,5.1-8.5,3-11.9-0.5c-4.8-4.8-9.9-5.2-16.5-5c-0.7,0-1.4,0.1-1.9,0.5c-0.6,0.5-0.8,1.3-0.8,2c0,2.2,1.4,4.2,3.2,5.4
			c1.8,1.2,4,1.6,6.2,1.8c3.3,0.3,7.1-0.1,9.1-2.8"/>
		<path class="st0" d="M99.9,151c-2.3-0.1-4.7,0-7,0.2c-0.5,0-1,0.1-1.4,0.3c-0.9,0.5-1.3,1.6-1.3,2.6c0,2.6,1.9,4.9,4.3,5.8
			c2.4,0.9,5.1,0.7,7.5-0.2c2-0.7,6.5-2.7,6.1-5.5C107.8,151.1,102.2,151,99.9,151z"/>
		<path class="st0" d="M112.2,147.2c0.7-2.9,2.7-5.6,5.6-6.4c0.7-0.2,1.5-0.3,2.1,0.1c0.5,0.2,0.8,0.7,1.1,1.1
			c2,3.1,2.4,7.3,0.6,10.5c-1.2,2.2-5.8,5.9-8.4,3.9C111.1,155,111.7,149.2,112.2,147.2z"/>
		<path class="st0" d="M71.1,101.8c0.2-2,1-4.2,2.9-4.8c1.5-0.5,3.2,0.3,4.1,1.6c0.9,1.3,1.2,2.9,1.2,4.5
			C79.6,113.9,70,111.7,71.1,101.8z"/>
		<path class="st0" d="M59.4,116c-1.4,1-2.8,2.5-2.5,4.2c0.3,2,2.5,3.2,4.5,3.4c3.4,0.4,11.4-1.7,11.2-6.3
			C72.2,111.5,62.1,114.1,59.4,116z"/>
		<path class="st0" d="M64.4,98.3c3.9,1.3,6,13.7-0.4,11.7C58.5,108.2,58.1,96.2,64.4,98.3z"/>
		<path class="st0" d="M43.5,112.1c-0.1,0.5-0.2,1-0.1,1.5c0.2,0.6,0.7,1.1,1.3,1.4c4.6,2.9,18.2,1.8,13.8-6.2
			C54.8,102.3,45.2,105.7,43.5,112.1z"/>
		<path class="st0" d="M48.9,88.7c0.2-0.4,0.5-0.8,0.9-1.1c0.4-0.3,0.9-0.3,1.4-0.3c1.6,0.1,3,1.2,3.8,2.6c0.8,1.4,1,3.1,1.1,4.7
			c0.1,2.2-0.2,4.4-0.7,6.5c-1.5,6-5.4,2.7-7.1-1.3C46.9,96.3,47,92,48.9,88.7z"/>
		<path class="st0" d="M32.2,91.2c-1,6.2,11.7,12.6,12.2,5.1C44.8,90.9,33.3,84.3,32.2,91.2z"/>
		<path class="st0" d="M70.8,121.9c1.6-1.6,4.4-1.2,6,0.3c1.6,1.5,2.3,3.8,2.6,6C81.4,144.3,65.7,127.1,70.8,121.9z"/>
		<path class="st0" d="M59.8,125.3c-1.9-0.6-4.4-0.6-5.3,1.2c-0.4,0.7-0.4,1.5-0.3,2.2c0.6,4.4,6,8.9,10.3,5.8
			C69.2,131.1,63.5,126.6,59.8,125.3z"/>
		<path class="st0" d="M49.7,135.5c-2.3-0.2-4.7-0.2-6.6,1c-2,1.2-3.2,3.8-2.1,5.8c1,1.8,3.3,2.4,5.3,2.6c4.4,0.4,9.3-0.6,12.1-4
			C62.6,135.9,52.3,135.8,49.7,135.5z"/>
		<path class="st0" d="M57.1,149.1c-0.1,0.6-0.2,1.2,0.2,1.7c0.4,0.4,1,0.5,1.6,0.4c4-0.4,7.1-3.7,9.3-7.1c2.5-3.8,1.1-7.5-3.3-5.6
			C60.7,140.2,58,144.9,57.1,149.1z"/>
		<path class="st0" d="M66.1,150.2c-0.1,0.7-0.1,1.4,0.4,1.8c0.2,0.2,0.5,0.3,0.8,0.3c2.2,0.3,4.5-0.7,6.2-2.3c2-1.9,8-11.1,1.8-11
			C70.7,139.1,66.6,146.5,66.1,150.2z"/>
		<path class="st0" d="M194.4,51c-2,0.7-3,3.1-3,5.2c0,4.6,4.6,11.7,9.2,6.9C204.3,59.2,200.3,49,194.4,51z"/>
		<path class="st0" d="M207.4,54.9c1.8-0.9,4.1-1.7,5.7-0.4c1.1,0.9,1.4,2.5,1,3.9c-0.4,1.4-1.4,2.5-2.5,3.4
			c-2.2,1.8-4.8,2.9-7.6,3.3C194.5,66.2,204.4,56.5,207.4,54.9z"/>
		<path class="st0" d="M191.7,81.8c-0.5-1.7-1.1-3.4-2.1-4.8c-1-1.4-2.6-2.6-4.4-2.6c-2.7,0-4.9,2.9-4.6,5.7
			c0.3,2.7,2.7,4.9,5.3,5.7c1.9,0.5,4.5,0.1,5.2-1.8"/>
		<path class="st0" d="M201.6,79.4c0.6,0,1.2,0,1.7,0.4c0.4,0.3,0.6,0.8,0.7,1.2c0.6,2.5-1.5,4.8-3.7,6c-2.9,1.6-13,4.4-10.5-1.5
			C191.3,81.6,197.9,79.5,201.6,79.4z"/>
		<path class="st0" d="M133.9,119c1.1-1.5,3.1-2.9,4.8-2.1c1.1,0.6,1.6,2,1.8,3.2c0.4,3-0.1,6.2-2,8.4c-1.6,1.8-6.2,3.6-7.8,1
			C129,127,132.4,121,133.9,119z"/>
		<path class="st0" d="M120.4,129.7c-1.4,0-2.8,0.1-4,0.7c-1.2,0.6-2.2,1.9-2.2,3.2c0,1.2,0.8,2.3,1.8,3c1,0.7,2.2,1.1,3.3,1.5
			c2.7,0.8,5.5,1.6,8.2,1.1c3.4-0.6,6-3,3.6-5.8C128.9,130.8,123.5,129.8,120.4,129.7z"/>
		<path class="st0" d="M142.9,128.2c1.8-0.7,4.2-0.2,5,1.5c0.7,1.6-0.1,3.4-1,4.8c-1.6,2.3-7.1,8.5-10,5.2
			C134.1,136.6,140,129.4,142.9,128.2z"/>
		<path class="st0" d="M133.8,146c-1-2.4-4-3.2-6.6-3.5c-1.7-0.2-3.6-0.2-4.8,1.1c-0.9,0.9-1,2.3-0.7,3.5c0.3,1.2,1.2,2.2,2.1,3
			c2,1.7,4.9,2.7,7.4,1.9c2.5-0.9,4.2-4,3.1-6.3"/>
		<path class="st0" d="M143.9,140.8c0.9-0.7,2.1-1,3.1-0.6c1.4,0.5,2,2.2,2.1,3.6c0.3,3.8-3.7,10.8-8.4,8.7
			C136.4,150.5,141.4,142.8,143.9,140.8z"/>
		<path class="st0" d="M136.3,159.5c0.3-1.3-1.1-2.3-2.2-2.7c-2-0.8-4.2-1.3-6.4-1.3c-0.7,0-1.5,0-2.1,0.4c-1.5,1-1.1,3.2-0.2,4.7
			c1,1.8,2.4,3.3,4.1,4.4c1.1,0.7,2.4,1.3,3.8,1.3c3,0,5.4-3.3,4.6-6.1"/>
		<path class="st0" d="M173.8,141.4c-0.1-2.6-0.4-5.2-0.8-7.8c-0.3-1.8-1-3.8-2.6-4.3c-1.3-0.4-2.8,0.3-3.6,1.4
			c-0.8,1.1-1.1,2.5-1.1,3.9c-0.1,3.6,1.5,7.6,4.9,8.7c1.4,0.5,3.5,0,3.7-1.5"/>
		<path class="st0" d="M159.4,139.9c-1.3-1.1-3.3-1.7-4.8-0.8c-1.2,0.7-1.9,2.2-1.8,3.6c0,1.4,0.6,2.8,1.3,4
			c1.4,2.4,7.8,10.6,10.5,6C166.3,149.8,161.4,141.6,159.4,139.9z"/>
		<path class="st0" d="M176.1,146.6c1.1-0.4,2.4-0.6,3.5-0.2c2.2,0.8,2.7,4,1.5,6c-1.2,2-3.4,3.1-5.6,4c-1.7,0.7-3.5,1.4-5.4,1.4
			C159.7,157.8,172.4,147.9,176.1,146.6z"/>
		<path class="st0" d="M152.6,155.1c-1.6-0.5-3.6-0.7-4.6,0.5c-0.9,1.1-0.7,2.7-0.1,3.9c0.8,1.7,2.1,3.1,3.5,4.3
			c2.5,2.1,9.9,6,10.7,0.4C162.7,159.8,155.8,156.1,152.6,155.1z"/>
		<path class="st0" d="M159.6,136.2c-0.1,0.8-0.9,1.5-1.7,1.7c-0.8,0.2-1.7,0.1-2.5-0.1c-2.9-0.7-5.9-2.2-7.2-4.9
			c-1.3-2.7-0.1-6.6,2.9-7.3c1-0.2,2.1,0,3.1,0.4c2.8,1.1,5,3.6,5.7,6.6c1.1-3.8,3.8-6.5,6.7-9.2c1.1-1,2.4-1.8,3.8-1.9
			c1.4-0.1,3,0.6,3.6,1.9c0.3,0.7,0.3,1.6,0.2,2.4c-0.6,5.6-6.3,10.2-12,9.6C161.9,135.1,159.2,136.2,159.6,136.2z"/>
		<path class="st0" d="M177.8,109.2c2.1,1.1,2.9,4.1,2.1,6.3c-1.5,4.3-9.2,8-11.7,2.7C165.8,113.1,173,106.6,177.8,109.2z"/>
		<g>
			<path class="st0" d="M166.6,40.1c-1,4.7-1.2,9.5-1.2,14.3c0,4.8,0.3,9.7,0.6,14.5c0.7,9.5,1.6,19,1.3,28.5
				c-0.1,4.6-0.6,9.2-1.5,13.7c-1,4.6-2.5,9.1-4.5,13.4c-3.8,8.5-8.8,16.6-11.6,25.5c-2.9,9.2-3.7,19.8,1.3,28.4
				c1,1.7,3.3-0.2,2.4-1.7c-4.3-7.4-3.9-16.4-1.7-24.4c2.5-8.8,7.3-16.7,11.1-25c2-4.3,3.7-8.7,4.8-13.2c1.1-4.5,1.7-9.2,2-13.8
				c0.6-9.4-0.3-18.8-1.1-28.2c-0.4-5.3-0.9-10.6-1-15.9c-0.1-5.3,0.1-10.5,0.4-15.8C168.1,39.3,166.8,39.2,166.6,40.1L166.6,40.1z"
				/>
		</g>
		<g>
			<path class="st0" d="M226.9,87.9c-1.8,0.8-3.6,1.5-5.4,2.5c-1.6,0.9-3.3,1.9-4.9,3c-3.3,2.1-6.4,4.4-9.4,6.8
				c-6.1,4.9-11.8,10.3-16.9,16.1c-10.3,11.8-18.4,25.5-23.9,40.2c-3.1,8.3-5.2,16.9-6.4,25.6c-0.1,0.8,0.6,1.7,1.4,1.6
				c1,0,1.4-1,1.5-1.8c2.1-15,7.2-29.6,14.6-42.8c7.4-13.2,17.1-25.1,28.7-34.8c3.3-2.8,6.7-5.3,10.3-7.8c1.8-1.2,3.6-2.4,5.4-3.5
				c1.9-1.1,3.6-2.4,5.5-3.5C228.2,89.1,227.9,87.5,226.9,87.9L226.9,87.9z"/>
		</g>
		<g>
			<path class="st0" d="M199.2,149c-2.1,1.8-4.4,3.5-6.5,5.3c-2.2,1.8-4.4,3.6-6.6,5.4c-4.4,3.5-9,6.7-13.8,9.8
				c-2.7,1.8-5.6,3.3-8.3,5.1c-1.6,1-0.5,3.9,1.4,2.9c2.5-1.3,4.9-3,7.2-4.5c2.4-1.6,4.7-3.2,7-4.8c4.7-3.3,9.3-6.8,13.6-10.7
				c2.4-2.2,4.7-4.5,6.9-6.9C200.7,149.8,200,148.3,199.2,149L199.2,149z"/>
		</g>
		<g>
			<path class="st0" d="M133,79.5c3.7,4.8,6,10.5,7.5,16.3c1.7,6.4,2.7,12.9,3.7,19.4c2.1,13.9,3.2,27.9,3.1,41.9
				c0,7.9-0.5,15.8-1,23.7c-0.1,0.8,0.5,1.6,1.3,1.5c0.9,0,1.4-0.9,1.4-1.7c1.6-14.2,1.5-28.7,0.5-42.9c-1-13.8-2.9-27.8-6.6-41.2
				c-1.8-6.6-4.3-13.1-9.1-18.1C133.3,77.8,132.5,78.9,133,79.5L133,79.5z"/>
		</g>
		<g>
			<path class="st0" d="M107.8,77.1c0.5,1.7,1.2,3.4,1.9,5c0.6,1.7,1.3,3.3,1.9,5c1.2,3.3,2.2,6.6,3.1,9.9
				c1.8,6.8,3.1,13.8,3.8,20.8c1.4,14,0.4,28.2-2.8,41.9c-0.9,3.8-2,7.6-3.2,11.4c-0.6,1.9-1.3,3.7-2,5.6c-0.7,1.9-1.6,3.7-2,5.7
				c-0.2,1,0.9,2.2,1.8,1.1c1.1-1.5,1.8-3.2,2.5-4.9c0.7-1.7,1.3-3.4,1.9-5.2c1.2-3.4,2.2-6.9,3.1-10.4c1.8-7,2.9-14.2,3.5-21.4
				c1.2-14.4-0.1-29-3.7-43c-1-3.9-2.2-7.7-3.5-11.5c-0.7-1.9-1.4-3.8-2.2-5.6c-0.8-1.9-1.6-3.8-2.8-5.4
				C108.6,75.4,107.6,76.4,107.8,77.1L107.8,77.1z"/>
		</g>
		<g>
			<path class="st0" d="M123.9,121.5c1.3,2,2.4,4.1,3.5,6.2c1.1,2.1,2.2,4.1,3.2,6.2c2,4.3,3.6,8.7,4.8,13.3
				c2.4,9.1,3.3,18.5,2.6,27.8c-0.2,2.6-0.5,5.2-1,7.7c-0.2,1.3-0.5,2.6-0.8,3.9c-0.3,1.3-0.7,2.7-0.7,4c0,1.2,1.3,1.5,1.9,0.5
				c1.2-2,1.6-4.7,2-7c0.5-2.4,0.8-4.9,1.1-7.3c0.5-4.8,0.5-9.7,0.1-14.5c-0.8-9.7-3.1-19.3-7.1-28.2c-1.1-2.4-2.3-4.9-3.6-7.2
				c-1.4-2.4-3.1-4.5-4.8-6.7C124.5,119.7,123.5,120.8,123.9,121.5L123.9,121.5z"/>
		</g>
		<g>
			<path class="st0" d="M42.9,98c3.6,4.3,8.1,7.9,12.8,10.9c4.7,3.1,9.8,5.6,15.1,7.5c1.5,0.5,2.9,1,4.4,1.4
				c0.8,0.2,1.6,0.4,2.4,0.6c0.8,0.2,1.6,0.5,2.4,0.1c0.7-0.3,1-1.2,0.5-1.8c-0.5-0.6-1.1-0.7-1.8-0.9c-0.7-0.2-1.3-0.3-2-0.5
				c-1.4-0.4-2.7-0.8-4-1.2c-2.6-0.9-5.2-1.9-7.7-3c-5-2.3-9.7-5.1-14.1-8.5c-2.5-1.9-4.8-3.9-7.2-5.9C43.1,96.3,42.4,97.5,42.9,98
				L42.9,98z"/>
		</g>
		<g>
			<path class="st0" d="M90.9,102.2c-0.7,3.3-0.5,6.8-0.3,10.1c0.2,3.3,0.6,6.6,1.2,9.9c1.2,6.6,3.3,13,6.1,19.1
				c5.2,11.4,13.3,21.4,23.2,29.1c5.4,4.2,11.4,7.9,17.8,10.2c1.5,0.6,2.6-2.3,1.2-3c-5.4-2.6-10.6-5.3-15.4-8.8
				c-4.8-3.4-9.2-7.4-13-11.8c-8.3-9.5-14.2-20.8-17-33.1c-0.8-3.6-1.4-7.2-1.7-10.8c-0.2-1.8-0.2-3.5-0.3-5.3
				c0-1.9,0.1-3.7-0.1-5.6C92.7,101.3,91.2,101,90.9,102.2L90.9,102.2z"/>
		</g>
		<g>
			<path class="st0" d="M56.2,137.6c3.6-0.1,7.2-0.2,10.8,0c3.6,0.3,7.1,0.8,10.6,1.7c6.9,1.7,13.5,4.5,19.4,8.3
				c1.7,1.1,3.3,2.3,4.9,3.5c0.7,0.6,1.4,1.2,2.1,1.8c0.8,0.7,1.6,1.6,2.5,2.1c0.7,0.4,1.4,0.1,1.8-0.5c0.5-0.7,0.4-1.5,0-2.1
				c-0.5-0.8-1.3-1.3-2-1.9c-0.7-0.6-1.5-1.2-2.2-1.8c-1.4-1.1-2.9-2.2-4.5-3.2c-3.1-2.1-6.4-3.8-9.8-5.3
				c-6.7-2.9-13.9-4.8-21.2-5.3c-4.1-0.3-8.3-0.3-12.4,0.5C55.1,135.5,54.8,137.6,56.2,137.6L56.2,137.6z"/>
		</g>
		<g>
			<path class="st0" d="M204.4,45.1c-0.8,4.9-1.7,9.8-3.1,14.5c-1.4,4.7-3.1,9.3-5.2,13.7c-4.3,8.9-10,17-16.8,24.1
				c-3.8,4-8,7.6-12.5,10.8c-0.7,0.5-1,1.5-0.6,2.3c0.4,0.8,1.3,1,2,0.5c8.3-5.9,15.5-13.3,21.3-21.6c5.9-8.4,10.4-17.7,13.4-27.5
				c1.6-5.4,2.9-11.1,3.3-16.8C206.2,44.1,204.5,43.9,204.4,45.1L204.4,45.1z"/>
		</g>
		<path class="st1" d="M162.8,170.5c6.1,0.6,12.3,1.4,18.2-0.2c-3.7,21.6-7.8,43.1-12.2,64.5c-0.2,0.9-0.4,1.8-0.9,2.6
			c-1,1.4-2.8,1.8-4.4,2.2c-17.3,3.5-35.3,4.1-52.8,1.7c-2-9.6-3.9-19.2-5.9-28.8c-1.5-7.3-3-14.7-4.2-22.1
			c-0.8-5.1-3.8-14.5-1.1-19.3c2.5-4.5,9.2-3.5,13.5-3.4c7.8,0.2,15.6,0.4,23.4,0.8C145.3,169,154,169.6,162.8,170.5z"/>
	</g>
	<g>
		<path class="st2" d="M116.8,225.2c-1.5-12.7-3.4-25.4-5.6-38c-1.2-6.6-2.4-13.1-3.8-19.6c-0.4,0-0.8,0-1.2,0.1
			c2.4,12.1,4.4,24.2,6.2,36.4c1.8,12.6,3.4,25.3,4.6,38c0.5,0.1,1.1,0.1,1.6,0.1C118.1,236.5,117.5,230.9,116.8,225.2z"/>
		<path class="st2" d="M126.6,236.9c-0.6-5.5-1.2-10.9-1.7-16.4c-1.2-10.9-2.3-21.8-3.5-32.8c-0.6-6.1-1.3-12.2-1.9-18.3
			c-0.1-0.9-1.2-0.4-1.1,0.4c2.3,21.7,4.5,43.5,6.8,65.2c0.3,2.5,0.5,5,0.8,7.6c0.4,0,0.9,0,1.3,0.1
			C127,240.8,126.8,238.9,126.6,236.9z"/>
		<path class="st2" d="M134.1,242.2c-0.3-3-0.6-5.9-0.8-8.9c-0.6-6-1.1-11.9-1.7-17.9c-1.2-12-2.3-23.9-3.5-35.9
			c-0.4-3.8-0.8-7.6-1.1-11.4c-0.4,0-0.8,0-1.2,0c0.8,9.2,1.7,18.3,2.5,27.5c1.1,11.9,2.2,23.8,3.3,35.6c0.3,3.3,0.6,6.7,0.9,10
			c0,0.5,0.1,1,0.1,1.5c0.5,0,1,0,1.5,0C134.2,242.6,134.2,242.4,134.1,242.2z"/>
		<path class="st2" d="M140.8,236c-0.2-5.4-0.5-10.8-0.7-16.2c-0.5-10.7-0.9-21.3-1.4-32c-0.3-6.1-0.5-12.1-0.8-18.2
			c0-1.1-1.5-0.9-1.4,0.1c0.9,21.6,1.9,43.1,2.8,64.7c0.1,2.7,0.2,5.4,0.4,8.2c0.5,0,1,0,1.5-0.1C140.9,240.4,140.8,238.2,140.8,236
			z"/>
		<path class="st2" d="M147.6,232.9c0.1-6.2,0.2-12.4,0.4-18.6c0.3-12.4,0.8-24.9,1.3-37.3c0.1-2.6,0.2-5.1,0.4-7.7
			c-0.4,0-0.8-0.1-1.3-0.1c-0.5,8-0.9,16.1-1.2,24.1c-0.5,12.4-0.9,24.9-1.2,37.3c-0.1,3.5-0.1,7-0.2,10.5c0,0.3,0,0.6,0,1
			c0.6,0,1.1-0.1,1.7-0.1C147.5,239,147.5,235.9,147.6,232.9z"/>
		<path class="st2" d="M155.2,237.1c0.3-6.1,0.5-12.2,0.8-18.3c0.5-12.1,1.1-24.1,1.6-36.2c0.2-4.2,0.3-8.4,0.5-12.6
			c-0.5,0-0.9-0.1-1.4-0.1c-0.5,9.5-0.9,19-1.4,28.6c-0.6,12.1-1.1,24.1-1.7,36.2c-0.1,2.2-0.2,4.4-0.3,6.6c0.6-0.1,1.1-0.2,1.7-0.2
			C155.1,239.8,155.2,238.4,155.2,237.1z"/>
		<path class="st2" d="M168,187c0.5-5.3,1-10.6,1.6-15.9c-0.5,0-0.9-0.1-1.4-0.1c-1,10.1-2,20.2-3.1,30.3
			c-1.1,11.1-2.2,22.1-3.3,33.2c-0.2,1.8-0.4,3.7-0.6,5.5c0.5-0.1,1-0.2,1.6-0.3c0.1-0.9,0.2-1.9,0.3-2.8c0.6-5.6,1.1-11.2,1.7-16.7
			C165.8,209.2,166.9,198.1,168,187z"/>
	</g>
</g>
</svg>
