<svg width="375" height="812" viewBox="0 0 375 812" fill="none" xmlns="http://www.w3.org/2000/svg">
<g clip-path="url(#clip0)">
<rect width="375" height="812" fill="white"/>
<rect width="375" height="812" fill="#D4F1F0" fill-opacity="0.4"/>
<ellipse cx="255" cy="704" rx="372" ry="218" fill="#B8E0B3" fill-opacity="0.5"/>
<rect y="324" width="375" height="12" fill="#B8E0B3" fill-opacity="0.5"/>
<rect y="201" width="375" height="12" fill="#B8E0B3" fill-opacity="0.5"/>
<path d="M52.3997 605.87C54.685 604.991 57.1461 603.819 58.0836 601.592C59.197 598.955 57.6734 595.849 55.3881 594.209C53.0442 592.568 50.1729 592.099 47.3603 591.748C35.0548 590.224 22.5149 590.517 10.3852 593.154C4.52541 594.443 -3.09229 597.256 -3.09229 604.405C-3.03369 610.557 2.59168 610.557 7.39668 611.202C22.5735 613.019 38.1018 611.261 52.3997 605.87Z" fill="#867A2E"/>
<path d="M1.5369 534.966C8.97879 544.987 15.1315 555.827 19.6436 567.488C24.097 579.032 26.9683 591.162 28.1402 603.467C28.4918 606.924 28.6676 610.44 28.6676 613.956C28.7262 617.413 28.4918 620.929 28.5504 624.386C28.5504 624.914 29.2536 625.031 29.3708 624.445C29.8395 621.339 29.8981 618.234 29.8981 615.128C29.8981 611.964 29.7809 608.799 29.5466 605.635C29.0778 599.365 28.1988 593.154 26.8511 587.06C24.1556 574.813 19.7022 562.918 13.6666 551.901C10.3265 545.748 6.45909 539.889 2.06427 534.38C1.77128 533.912 1.24391 534.556 1.5369 534.966Z" fill="#64985E"/>
<path d="M21.3429 520.552C15.2488 531.92 13.2565 545.397 13.6081 558.171C14.0182 571.942 17.2411 585.419 21.4015 598.486C22.6321 602.237 23.8626 605.928 25.2104 609.62C26.5581 613.429 27.8473 617.238 29.4294 620.929C29.7224 621.574 30.6014 620.988 30.4256 620.402C29.3708 617.12 28.0817 613.898 26.9097 610.675C25.7378 607.393 24.5658 604.053 23.3939 600.713C21.1671 594.092 19.1748 587.353 17.6513 580.497C14.78 567.723 13.6081 554.48 15.659 541.53C16.7723 534.381 18.9404 527.583 22.0461 521.079C22.3977 520.493 21.6945 519.907 21.3429 520.552Z" fill="#64985E"/>
<path d="M-11.2374 566.141C-3.56116 572.352 3.11898 579.735 8.74435 587.822C14.3697 595.908 18.7645 604.874 21.8702 614.249C23.6281 619.523 24.7415 624.855 25.9135 630.246C26.0892 630.95 26.851 630.481 26.7924 629.953C26.3236 624.973 25.0345 620.05 23.5109 615.304C21.9874 610.558 20.1709 605.928 18.0028 601.416C13.6665 592.51 8.09977 584.13 1.41964 576.747C-2.3306 572.586 -6.43244 568.778 -10.8273 565.32C-11.2374 565.027 -11.6476 565.848 -11.2374 566.141Z" fill="#64985E"/>
<path d="M2.59155 561.628C5.46283 565.847 8.39271 570.008 10.971 574.403C13.4907 578.68 15.8346 583.134 17.8855 587.646C22.1045 596.846 25.2688 606.456 27.3783 616.3C27.9643 619.054 28.4917 621.808 28.9019 624.562C29.312 627.375 29.6636 630.188 30.191 632.942C30.3082 633.41 30.8942 633.235 30.8942 632.824C30.8942 627.727 29.898 622.628 28.9019 617.648C27.9057 612.726 26.6166 607.803 25.0344 602.998C21.8702 593.33 17.7683 583.895 12.6117 575.106C9.74045 570.242 6.63478 565.379 3.06033 560.984C2.76734 560.632 2.35716 561.277 2.59155 561.628Z" fill="#64985E"/>
<path d="M55.7397 536.724C52.1067 542.701 49.1768 549.206 46.6571 555.769C44.1374 562.332 42.0279 569.129 40.4458 575.985C37.2815 589.697 36.051 603.877 36.8713 617.941C37.1057 621.808 37.4573 625.734 37.9847 629.602C38.2777 631.594 38.5707 633.528 38.9222 635.52C39.2738 637.454 39.6254 639.387 40.27 641.204C40.4458 641.614 40.9731 641.321 40.9146 640.97C40.7974 639.212 40.3872 637.512 40.0942 635.754C39.8012 634.055 39.5082 632.414 39.2738 630.715C38.7464 627.258 38.3363 623.742 38.1019 620.285C37.5745 613.311 37.5745 606.338 38.0433 599.365C38.9808 585.478 41.8521 571.766 46.6571 558.699C49.3526 551.315 52.7513 544.225 56.4429 537.31C56.7359 536.607 56.0327 536.138 55.7397 536.724Z" fill="#64985E"/>
<path d="M75.2527 546.276C72.3814 546.92 69.6859 547.917 67.049 549.264C64.5293 550.553 62.0682 552.018 59.7829 553.718C55.0951 557.175 50.9933 561.394 47.4774 566.023C39.684 576.454 35.4063 588.993 33.3554 601.768C32.1249 609.444 31.5389 617.296 31.7733 625.09C31.7733 625.676 32.5351 625.617 32.5936 625.031C32.828 618.175 33.121 611.319 34.0586 604.58C34.9961 597.842 36.5197 591.103 38.805 584.716C42.7896 573.641 49.4112 563.386 58.6696 556.003C63.6504 552.018 69.3343 548.971 75.4285 546.979C75.7215 546.803 75.6629 546.217 75.2527 546.276Z" fill="#64985E"/>
<path d="M69.0415 583.193C66.932 583.017 64.7053 583.251 62.6543 583.603C60.5448 583.954 58.4939 584.482 56.443 585.185C52.4584 586.533 48.6495 588.466 45.1923 590.927C38.1605 595.967 32.9454 603.174 30.1327 611.378C29.3709 613.663 28.7263 616.007 28.3747 618.351C28.199 619.523 28.0232 620.754 27.9646 621.984C27.906 623.156 28.0232 624.328 28.1403 625.5C28.1989 625.91 28.6677 625.676 28.6677 625.383C28.8435 623.332 29.0779 621.222 29.3709 619.172C29.6639 617.121 30.1327 615.128 30.7772 613.136C32.0078 609.21 33.8243 605.401 36.1096 602.002C40.7388 595.147 47.5362 589.873 55.2711 586.943C57.4392 586.122 59.6659 585.478 61.9512 584.951C64.2365 584.482 66.5804 584.247 68.9243 583.954C69.4517 583.837 69.5103 583.251 69.0415 583.193Z" fill="#64985E"/>
<path d="M52.5754 572.938C46.0711 577.098 41.1489 583.368 37.633 590.165C33.6484 597.842 31.4802 606.221 30.0739 614.718C29.1949 619.816 28.3746 624.972 28.0816 630.129C28.023 630.656 28.7848 630.715 28.8434 630.188C29.6051 625.734 30.0153 621.281 30.7185 616.827C31.4216 612.374 32.3006 607.979 33.5312 603.643C35.6407 596.084 38.8635 588.759 43.7272 582.548C46.364 579.208 49.4697 576.161 52.927 573.641C53.2786 573.406 53.0442 572.645 52.5754 572.938Z" fill="#64985E"/>
<path d="M59.9587 591.631C49.8799 595.791 42.3794 604.991 40.5043 615.773C39.9769 618.996 39.8597 622.219 40.5043 625.441C40.5629 625.852 41.1489 625.676 41.1489 625.324C40.8559 619.757 41.3833 614.249 43.5514 609.093C45.5437 604.346 48.7666 600.127 52.8098 596.904C55.0365 595.088 57.4976 593.623 60.1345 592.51C60.5447 592.334 60.4275 591.455 59.9587 591.631Z" fill="#64985E"/>
<path d="M3.88084 598.896C8.33426 599.189 12.3189 601.65 15.366 604.756C18.706 608.213 20.9327 612.55 23.0423 616.827C23.6868 618.116 24.2728 619.347 24.9174 620.636C25.562 621.867 26.1479 623.214 27.0855 624.211C27.3785 624.503 27.8473 624.152 27.7301 623.8C27.3199 622.57 26.6753 621.456 26.0893 620.284C25.5034 619.112 24.9174 617.941 24.3314 616.769C23.1594 614.425 21.9875 612.081 20.6398 609.795C18.2373 605.869 15.1316 602.178 10.9712 599.951C8.80304 598.779 6.40054 598.076 3.88084 598.017C3.41206 598.017 3.35346 598.896 3.88084 598.896Z" fill="#64985E"/>
<path d="M-3.20945 589.931C3.93946 590.634 10.5024 594.326 15.6004 599.307C21.1672 604.698 24.976 611.612 27.8473 618.761C28.7262 620.871 29.488 623.039 30.2498 625.148C31.0116 627.316 31.6561 629.543 32.5937 631.594C32.7695 632.004 33.2969 631.652 33.2383 631.242C32.8281 629.191 32.1835 627.199 31.4803 625.265C30.7772 623.273 30.074 621.339 29.3122 619.347C27.7887 615.48 26.0308 611.671 23.9212 608.096C20.1124 601.709 14.8972 595.967 8.21708 592.392C4.64263 590.517 0.77519 589.286 -3.26805 589.052C-3.61963 589.111 -3.67823 589.872 -3.20945 589.931Z" fill="#64985E"/>
<path d="M24.0383 588.349C31.5388 595.966 36.2266 606.338 36.8712 617.061C37.047 620.05 36.8712 623.038 36.6954 626.027C36.6368 626.496 37.2814 626.554 37.3986 626.086C38.6291 620.812 38.1603 615.069 36.9298 609.854C35.6992 604.522 33.5311 599.365 30.5427 594.794C28.8433 592.216 26.851 589.814 24.6243 587.645C24.2141 587.235 23.6867 587.997 24.0383 588.349Z" fill="#64985E"/>
<path d="M15.2488 607.862C20.4054 607.745 25.5619 607.1 30.7185 606.456C38.9808 605.401 47.2431 604.405 55.5053 603.35C55.1537 623.918 53.3958 644.427 50.3487 664.702C39.391 668.804 27.3785 670.093 15.8347 668.393C14.3112 668.159 12.7291 667.866 11.6157 666.811C10.6782 665.932 10.2094 664.702 9.79919 663.53C4.7012 649.525 0.364978 635.227 -3.09228 620.754C-3.97125 617.003 -8.54186 606.632 -3.73686 605.753C-1.51015 605.342 2.3573 607.042 4.6426 607.276C8.15846 607.804 11.6743 607.921 15.2488 607.862Z" fill="#BCCEE0"/>
<path d="M93.4765 574.462C100.567 574.051 108.067 575.751 113.341 580.497C112.99 583.837 110.646 586.65 107.716 588.349C104.844 590.049 101.504 590.752 98.2229 591.338C90.7811 592.685 83.222 593.623 75.6629 594.15C71.7368 594.443 67.6936 594.561 64.0019 593.154C60.8963 591.982 58.2594 589.99 54.8607 589.638C58.3766 585.712 65.2911 582.431 70.1547 580.38C77.3036 577.216 85.6831 574.93 93.4765 574.462Z" fill="#3C630B"/>
<path d="M-15.8665 511.938C-17.976 507.953 -20.027 503.968 -21.2575 499.632C-22.4881 495.179 -22.781 490.491 -23.074 485.862C-23.7186 475.197 -24.3632 464.356 -21.7263 453.985C-14.7532 455.391 -8.952 460.196 -4.55718 465.763C5.46301 478.478 9.27185 495.12 9.44764 511.293C9.50624 515.688 9.03746 538.541 2.24014 537.896C-1.21712 537.603 -5.67054 529.048 -7.36987 526.411C-10.4169 521.782 -13.2296 516.86 -15.8665 511.938Z" fill="#63823C"/>
<path d="M20.3467 498.577C24.3313 489.964 30.8356 482.756 37.5158 475.959C46.657 466.7 56.3842 458.028 66.5802 450C63.3573 465.763 61.4822 482.053 54.9192 496.702C49.8799 507.836 41.5004 518.208 30.191 523.364C27.9057 524.419 23.9211 526.353 21.4014 526.118C18.0027 525.767 17.827 523.013 17.1824 519.614C15.8932 512.524 17.3582 505.082 20.3467 498.577Z" fill="#63823C"/>
<path d="M58.5524 516.918C63.8848 510.59 71.3267 506.371 78.9443 503.148C80.7023 509.066 81.3468 515.336 80.8781 521.548C80.3507 528.462 78.1826 535.67 72.9674 540.24C68.1038 544.518 56.7945 546.569 52.634 540.064C48.2978 533.326 54.2162 522.075 58.5524 516.918Z" fill="#63823C"/>
<path d="M-5.02593 600.361C-0.631115 599.248 3.64651 597.607 1.65419 592.626C0.423641 589.638 -1.97886 587.353 -4.61575 585.595C-9.88954 582.079 -16.5697 580.321 -22.7224 579.618C-27.586 579.09 -32.5668 579.032 -37.2546 580.438C-41.9424 581.845 -46.2787 584.774 -48.6226 589.052C-38.3094 597.021 -25.2421 601.416 -12.2334 601.182C-9.77234 601.182 -7.36984 600.947 -5.02593 600.361Z" fill="#63823C"/>
<path d="M-31.1605 613.546C-36.0241 618.116 -40.2432 624.093 -40.1846 630.774C-40.1846 631.887 -40.0088 633.059 -39.4814 634.055C-38.3095 636.165 -35.7312 636.926 -33.3287 637.219C-26.0626 638.04 -18.7378 635.93 -11.9405 633.117C-6.31515 630.774 -0.924175 627.844 3.52924 623.683C7.98267 619.523 11.3813 614.073 12.3189 608.096C12.9049 604.17 12.3775 598.721 7.92407 597.9C4.11522 597.256 -1.80313 598.896 -5.49479 599.775C-15.1048 602.061 -24.0116 606.807 -31.1605 613.546Z" fill="#63823C"/>
<path d="M8.80301 547.917C10.2093 552.077 13.022 555.593 15.9519 558.874C21.2843 564.91 27.1441 570.477 33.3554 575.575C34.1172 576.161 34.9375 576.805 35.8751 576.922C37.4572 577.098 38.805 575.926 39.8011 574.754C42.9654 571.004 44.6061 566.199 46.0711 561.453C49.6455 549.616 50.4073 537.838 39.8011 529.517C31.7147 523.188 22.925 526.646 15.1315 531.568C9.096 535.318 6.40051 540.826 8.80301 547.917Z" fill="#63823C"/>
<path d="M103.731 567.899C95.8205 575.985 84.8628 580.614 73.7292 582.489C67.8695 583.485 40.7388 587.822 45.661 574.579C47.5947 569.363 56.1499 567.43 60.8963 566.023C67.4593 564.148 74.3738 563.269 81.2297 563.445C88.906 563.621 96.5823 565.086 103.731 567.899Z" fill="#63823C"/>
<path d="M-19.3238 544.987C-23.1912 538.306 -25.1835 530.22 -23.1912 522.719C-15.6321 523.54 -8.71763 527.7 -3.61963 533.326C1.47836 538.892 4.93562 545.866 7.45532 553.014C9.85782 559.753 11.4986 574.051 0.5408 566.492C-7.01829 561.218 -14.6946 552.897 -19.3238 544.987Z" fill="#8AA16D"/>
<path d="M82.2258 537.018C90.1951 534.381 98.9261 533.15 107.13 535.084C115.333 537.018 122.951 542.467 126.174 550.261C111.583 549.968 96.9924 549.675 82.4016 549.323C77.831 549.206 73.2018 549.147 68.7483 550.085C67.2248 550.436 61.4236 553.425 60.6619 552.546C59.1383 550.788 64.1191 547.096 65.1153 546.217C70.0961 542.057 76.073 539.068 82.2258 537.018Z" fill="#63823C"/>
<path d="M64.5294 587.587C71.6783 585.829 79.7647 585.126 86.0347 588.993C88.2614 590.341 90.1365 592.216 91.7772 594.267C100.215 604.522 103.262 618.995 99.6879 631.828C99.4535 632.707 99.1605 633.586 98.4574 634.172C97.4026 635.051 95.7033 634.7 94.7071 633.821C93.6524 632.942 93.125 631.594 92.6562 630.305C91.2499 626.496 90.1951 622.511 88.4958 618.878C83.7494 608.682 73.612 601.533 62.6542 599.658C59.197 599.072 51.2277 601.182 51.4035 596.67C51.4621 591.044 60.4275 588.583 64.5294 587.587Z" fill="#63823C"/>
<path d="M-2.38922 531.978C-2.68221 532.33 -2.91661 532.681 -3.20959 533.033C-1.45167 535.553 0.540654 537.779 2.23998 537.955C2.29858 537.955 2.35718 537.955 2.35718 537.955C0.716445 536.022 -0.865685 534.029 -2.38922 531.978Z" fill="#8AA16D"/>
<path d="M-16.3353 505.844C-16.0423 505.668 -15.8079 505.492 -15.5735 505.258C-7.72143 499.691 -1.86168 491.253 1.06821 482.112C1.47839 480.764 1.88858 479.416 2.18157 478.01C2.24016 477.717 2.29876 477.365 2.35735 477.072C2.12296 476.545 1.88857 476.076 1.65418 475.607C1.53699 476.252 1.47839 476.838 1.36119 477.424C1.1268 478.596 0.833817 479.826 0.482229 480.998C-0.162344 483.283 -1.0413 485.569 -2.09606 487.737C-4.20558 492.132 -7.01826 496.234 -10.4169 499.749C-12.0577 501.449 -13.8742 503.031 -15.8079 504.496C-16.1009 504.73 -16.3939 504.965 -16.6869 505.199C-17.0971 505.375 -16.8041 506.137 -16.3353 505.844Z" fill="#8AA16D"/>
<path d="M-13.1125 516.098C-12.7609 515.747 -12.4093 515.337 -12.0578 514.985C-5.43622 507.777 -0.455421 498.871 2.59166 489.612C3.35342 487.21 4.0566 484.807 4.52538 482.346C4.34958 481.819 4.11519 481.35 3.9394 480.823C3.9394 480.823 3.9394 480.823 3.9394 480.881C2.88465 485.921 1.47829 490.843 -0.572622 495.589C-2.56494 500.218 -5.08463 504.73 -8.07311 508.832C-9.42086 510.707 -10.8858 512.524 -12.4093 514.282C-12.8195 514.751 -13.1711 515.161 -13.5813 515.629C-13.6985 515.747 -13.6985 515.864 -13.6985 515.981C-13.6399 516.04 -13.6399 516.098 -13.5813 516.215C-13.4641 516.215 -13.2883 516.215 -13.1125 516.098Z" fill="#8AA16D"/>
<path d="M-2.44772 518.501C-0.689791 516.098 0.892343 513.578 2.35728 511C4.87698 506.488 6.81071 501.683 8.27565 496.702C8.15845 495.999 8.04125 495.296 7.92406 494.534C5.87314 502.621 2.35729 510.297 -2.50631 517.094C-4.14705 519.38 -5.90498 521.43 -7.72151 523.54C-7.9559 523.833 -8.24889 524.126 -8.48328 524.419C-8.36608 524.653 -8.19028 524.829 -8.07309 525.064C-7.7801 524.829 -7.54571 524.536 -7.31132 524.302C-5.5534 522.544 -3.97126 520.552 -2.44772 518.501Z" fill="#8AA16D"/>
<path d="M4.75971 520.727C6.63483 517.094 8.15837 513.286 9.44752 509.418C9.44752 508.539 9.38893 507.66 9.33033 506.781C8.74435 508.832 8.04118 510.883 7.27941 512.934C5.58008 517.387 3.47056 521.665 1.00946 525.767C-0.16249 527.701 -1.45164 529.634 -2.74079 531.509C-2.97518 531.861 -3.20958 532.213 -3.50256 532.564C-3.38537 532.74 -3.26817 532.857 -3.20958 533.033C-2.91659 532.681 -2.68219 532.33 -2.3892 531.978C0.364887 528.462 2.70879 524.654 4.75971 520.727Z" fill="#8AA16D"/>
<path d="M37.1056 503.91C38.7464 501.683 40.3285 499.398 41.8521 497.113C42.438 496.234 43.024 495.413 43.5514 494.534H43.4928C42.9654 494.651 42.9068 493.89 43.317 493.714C43.3756 493.714 43.3756 493.655 43.4342 493.655C43.3756 493.655 43.317 493.655 43.2584 493.655C43.1412 493.597 43.024 493.538 42.9068 493.479C40.7387 496.761 38.5706 499.984 36.2853 503.207C36.5197 503.441 36.8127 503.734 37.1056 503.91Z" fill="#8AA16D"/>
<path d="M35.5821 504.203C34.1171 506.254 32.6522 508.246 31.1287 510.238C30.5427 511 29.9567 511.82 29.3121 512.582C29.6637 512.699 30.0739 512.758 30.4841 512.816C32.4764 510.238 34.4101 507.66 36.3438 504.964C36.0509 504.73 35.8165 504.496 35.5821 504.203Z" fill="#8AA16D"/>
<path d="M51.052 482.522C54.7436 476.252 58.2009 469.865 61.4238 463.36C62.8887 460.372 64.295 457.325 65.7014 454.336C65.9944 452.871 66.2873 451.406 66.5803 450C66.5217 450.059 66.4045 450.117 66.3459 450.234C62.2441 459.669 57.6149 468.868 52.5169 477.834C51.9895 478.771 51.4622 479.709 50.9348 480.588C50.5246 481.819 49.9972 482.99 49.4698 484.162C49.9386 483.576 50.5246 483.049 51.052 482.522Z" fill="#8AA16D"/>
<path d="M43.5513 493.597C43.8443 493.479 44.1373 493.362 44.4302 493.245C46.2468 490.491 47.9461 487.737 49.6455 484.924C49.5869 484.983 49.5283 485.041 49.4697 485.1C49.1181 485.393 48.7665 484.924 49.0009 484.631C48.9423 484.573 48.8837 484.514 48.9423 484.397C49.0009 484.104 49.1181 483.869 49.1767 483.576C47.3015 486.682 45.3678 489.788 43.3755 492.835C43.4927 492.952 43.5513 493.069 43.6685 493.128C43.7857 493.304 43.7271 493.538 43.5513 493.597Z" fill="#8AA16D"/>
<path d="M28.4332 513.696C27.0855 515.395 25.7377 517.094 24.39 518.794C22.6321 520.962 20.8155 523.013 19.0576 525.122C19.292 525.357 19.585 525.533 19.878 525.65C23.2767 521.899 26.4409 517.973 29.5466 513.989C29.2536 513.93 28.9606 513.872 28.6676 513.754C28.5504 513.754 28.4918 513.754 28.4332 513.696Z" fill="#8AA16D"/>
<path d="M49.001 484.573C49.001 484.573 49.001 484.514 49.0596 484.514C49.1768 484.397 49.3526 484.221 49.4698 484.104C49.9972 482.932 50.5246 481.76 50.9347 480.529C51.9895 477.541 52.7512 474.435 53.3958 471.388C54.1576 467.521 54.685 463.595 54.8608 459.669C54.5092 460.02 54.099 460.313 53.7474 460.665C53.6888 461.661 53.6302 462.599 53.513 463.595C53.0442 468.107 52.2239 472.619 51.0519 477.014C50.466 479.182 49.7628 481.35 49.1768 483.518C49.1182 483.811 49.001 484.045 48.9424 484.338C48.8838 484.455 48.8838 484.573 49.001 484.573Z" fill="#8AA16D"/>
<path d="M49.0009 484.514C49.0009 484.514 49.0009 484.572 48.9423 484.572C48.708 484.924 49.0595 485.393 49.4111 485.041C49.4697 484.983 49.5283 484.924 49.5869 484.865C52.634 482.111 55.6225 479.357 58.611 476.545C59.7243 475.49 60.8963 474.376 62.0096 473.322C62.1268 472.677 62.3026 472.033 62.4198 471.447C60.9549 472.853 59.4899 474.259 58.025 475.666C55.6811 477.892 53.3372 480.178 51.0519 482.463C50.5245 482.99 49.9971 483.518 49.4111 484.045C49.2939 484.279 49.1767 484.397 49.0009 484.514Z" fill="#8AA16D"/>
<path d="M43.4341 493.655C43.4927 493.655 43.4927 493.597 43.5513 493.597C43.7271 493.48 43.7857 493.245 43.6099 493.128C43.4927 493.011 43.4341 492.894 43.3169 492.835C42.3794 491.78 41.6176 490.726 41.0902 489.378C40.5042 487.854 40.2699 486.272 40.2113 484.631C39.9183 480.705 40.2113 476.721 40.973 472.853C41.0316 472.678 41.0316 472.56 41.0902 472.385C40.6214 472.795 40.2113 473.263 39.8011 473.674C39.5081 475.256 39.3323 476.779 39.2151 478.361C38.9807 481.995 38.9221 485.979 40.0941 489.495C40.6214 491.019 41.5004 492.601 42.9068 493.421C43.0239 493.48 43.1411 493.538 43.2583 493.597C43.3169 493.655 43.3755 493.655 43.4341 493.655Z" fill="#8AA16D"/>
<path d="M43.4342 493.655C43.3756 493.655 43.3756 493.714 43.317 493.714C42.9069 493.89 42.9654 494.71 43.4928 494.534H43.5514C45.5437 494.065 47.4189 493.186 49.2354 492.307C51.1105 491.428 52.8684 490.432 54.5677 489.319C56.0327 488.381 57.3804 487.327 58.7282 486.272C58.904 485.627 59.1384 484.983 59.3141 484.28C56.3843 486.858 53.1028 489.143 49.587 490.901C47.8876 491.78 46.1297 492.483 44.3132 493.245C44.0202 493.362 43.7272 493.479 43.4342 493.597C43.4928 493.655 43.4928 493.655 43.4342 493.655Z" fill="#8AA16D"/>
<path d="M51.6379 502.328C49.7628 503.031 47.8291 503.675 45.8367 504.203C43.9616 504.73 41.9107 505.257 39.977 505.082C38.805 504.965 37.8675 504.554 37.1057 503.968C36.8127 503.734 36.5783 503.5 36.3439 503.265C34.7618 501.507 34 498.812 33.4726 496.526C32.3593 491.663 32.4179 486.623 33.414 481.76C33.5312 481.232 32.8867 481.057 32.7695 481.584C31.5975 486.037 31.4217 490.725 32.1835 495.296C32.5351 497.405 33.0625 499.515 33.8828 501.507C34.293 502.503 34.879 503.5 35.5822 504.32C35.8165 504.613 36.0509 504.847 36.3439 505.082C36.6955 505.375 37.0471 505.609 37.4573 505.785C39.2738 506.664 41.3833 506.605 43.317 506.195C45.4266 505.785 47.4775 505.199 49.4698 504.554C49.9972 504.379 50.5245 504.203 51.0519 504.027C51.4035 503.441 51.7551 502.855 52.0481 502.328C51.9309 502.21 51.8137 502.269 51.6379 502.328Z" fill="#8AA16D"/>
<path d="M26.5581 510.707C25.7378 509.418 25.562 507.777 25.4448 506.254C25.3276 504.32 25.3276 502.328 25.269 500.335C25.269 498.05 25.269 495.765 25.269 493.479C25.269 492.249 25.3276 491.077 25.3862 489.846C25.0346 490.374 24.683 490.901 24.3314 491.429C24.3314 492.015 24.3314 492.601 24.2728 493.187C24.2142 495.355 24.2142 497.523 24.2142 499.691C24.2142 501.8 24.2728 503.91 24.3314 506.019C24.39 507.602 24.5658 509.184 25.2104 510.649C25.855 512.055 26.9683 513.168 28.4333 513.696C28.4919 513.696 28.5505 513.754 28.6091 513.754C28.902 513.871 29.195 513.93 29.488 513.989C30.8944 514.282 32.4179 514.282 33.8242 514.282C37.4573 514.223 41.0903 513.578 44.5476 512.465C45.1922 511.762 45.7782 511.059 46.3641 510.356C46.1883 510.414 46.0711 510.473 45.9539 510.531C42.6725 511.762 39.1566 512.582 35.6408 512.817C33.9414 512.934 32.1249 512.992 30.4256 512.758H30.367C29.9568 512.7 29.6052 512.641 29.195 512.524C28.1989 512.289 27.2027 511.703 26.5581 510.707Z" fill="#8AA16D"/>
<path d="M69.0413 509.828C65.9942 518.208 61.658 526.001 56.0326 533.033C54.6263 534.791 53.1614 536.431 51.6964 538.014C51.8136 538.424 51.9894 538.775 52.1652 539.127C54.0989 537.135 55.9154 535.025 57.6148 532.857C57.6148 532.857 57.6148 532.857 57.6148 532.798C57.4976 532.505 57.8492 532.212 58.0835 532.212C58.6695 531.451 59.2555 530.689 59.7829 529.868C59.7243 529.751 59.6657 529.634 59.6071 529.517C59.3727 529.107 59.9587 528.638 60.1931 529.107C60.1931 529.107 60.1931 529.165 60.2517 529.165C60.8376 528.345 61.4236 527.466 61.951 526.587C62.0682 526.411 62.1854 526.235 62.3026 526.001C62.244 525.825 62.1268 525.649 62.0682 525.474C61.8924 525.063 62.4198 524.595 62.7128 525.063C62.7714 525.122 62.7714 525.181 62.83 525.239C63.4159 524.243 64.0019 523.247 64.5879 522.251C64.5293 522.192 64.4707 522.134 64.4121 522.075C64.1191 521.723 64.5879 521.079 64.9981 521.43C65.3496 520.727 65.7598 520.083 66.1114 519.38C65.9942 519.321 65.9356 519.204 65.8184 519.087C65.4669 518.735 65.8184 517.915 66.2872 518.266C66.4044 518.325 66.463 518.442 66.5802 518.501C67.2248 517.211 67.8694 515.864 68.4553 514.516C68.3967 514.457 68.3381 514.399 68.2795 514.34C67.9279 514.047 68.2795 513.344 68.6897 513.578C68.7483 513.637 68.8069 513.637 68.8655 513.696C69.2757 512.641 69.7445 511.645 70.0961 510.59C69.8617 510.473 69.6273 510.356 69.4515 510.238C69.0999 510.297 69.0413 510.063 69.0413 509.828Z" fill="#8AA16D"/>
<path d="M69.6272 509.301C69.8616 509.418 70.1546 509.535 70.389 509.653C70.5062 509.301 70.6234 509.008 70.7406 508.656C70.975 508.07 71.1508 507.484 71.3266 506.84C70.7992 507.133 70.2718 507.426 69.7444 507.777C69.5686 508.305 69.3928 508.891 69.1584 509.418C69.3342 509.301 69.4514 509.242 69.6272 509.301Z" fill="#8AA16D"/>
<path d="M79.8819 519.087C78.5342 516.333 76.5419 513.871 74.1394 511.938C72.9674 511 71.7369 510.238 70.3891 509.652C70.1547 509.535 69.8617 509.418 69.6274 509.301C69.4516 509.242 69.3344 509.301 69.2172 509.418C69.1 509.535 69.0414 509.711 69.0414 509.887C69.0414 510.121 69.1586 510.297 69.3344 510.414C69.5688 510.531 69.8031 510.649 69.9789 510.766C73.1432 512.289 75.8387 514.75 77.7138 517.68C78.71 519.204 79.5303 520.903 80.1163 522.72C80.2921 523.364 80.4679 523.95 80.5851 524.595C80.7023 523.599 80.8195 522.602 80.9367 521.665V521.606C80.6437 520.669 80.2921 519.848 79.8819 519.087Z" fill="#8AA16D"/>
<path d="M68.2209 514.457C68.2795 514.516 68.3381 514.574 68.3967 514.633C71.5024 517.211 74.0221 520.376 75.6628 524.067C76.4832 525.942 77.0692 527.935 77.4208 529.927C77.5966 530.923 77.7138 531.978 77.7724 532.974C77.7724 533.267 77.7724 533.501 77.7724 533.794C78.1239 533.15 78.4169 532.447 78.7099 531.744C78.7099 531.509 78.6513 531.216 78.6513 530.982C78.4755 529.341 78.0653 527.642 77.5966 526.06C76.5418 522.895 74.9597 519.965 72.7916 517.387C71.6196 515.981 70.2718 514.809 68.8069 513.754C68.7483 513.695 68.6897 513.695 68.6311 513.637C68.1623 513.403 67.8693 514.164 68.2209 514.457Z" fill="#8AA16D"/>
<path d="M65.8185 519.262C65.9357 519.321 65.9943 519.438 66.1115 519.555C68.6312 521.841 70.8579 524.302 72.5573 527.29C74.2566 530.279 75.4285 533.56 76.0145 536.959C76.3075 536.549 76.5419 536.139 76.8349 535.728C76.6005 534.498 76.2489 533.326 75.8973 532.154C74.784 528.755 72.9674 525.532 70.6821 522.72C69.4516 521.255 68.1038 519.848 66.5803 518.735C66.4631 518.676 66.4045 518.559 66.2873 518.501C65.7599 518.09 65.4083 518.911 65.8185 519.262Z" fill="#8AA16D"/>
<path d="M64.4121 522.192C64.4707 522.251 64.5293 522.309 64.5879 522.368C69.2171 527.642 71.561 534.673 71.0336 541.705C71.3852 541.471 71.7368 541.295 72.0298 541.061C72.0884 539.771 72.0884 538.541 71.9712 537.252C71.6782 533.56 70.5648 529.868 68.7483 526.646C67.7521 524.829 66.463 523.13 64.998 521.606C64.5879 521.196 64.1191 521.841 64.4121 522.192Z" fill="#8AA16D"/>
<path d="M62.0681 525.591C62.1267 525.767 62.244 525.943 62.3026 526.119C64.9394 531.627 66.17 537.721 65.6426 543.756C65.9942 543.698 66.3458 543.581 66.6974 543.463C66.9903 539.303 66.5216 535.084 65.3496 531.158C64.705 529.107 63.8847 527.173 62.8299 525.298C62.7713 525.24 62.7713 525.181 62.7127 525.122C62.4197 524.712 61.8924 525.181 62.0681 525.591Z" fill="#8AA16D"/>
<path d="M59.607 529.576C59.6656 529.693 59.7242 529.81 59.7828 529.927C61.2478 532.623 61.9509 535.728 61.8923 538.775C61.8923 540.357 61.658 541.94 61.1892 543.405C61.1306 543.698 61.0134 543.932 60.8962 544.225C61.2478 544.225 61.5994 544.225 61.9509 544.225C62.5369 542.467 62.7713 540.592 62.8299 538.834C62.8885 535.435 62.0095 532.154 60.3102 529.224C60.3102 529.224 60.3102 529.165 60.2516 529.165C59.9586 528.755 59.3727 529.224 59.607 529.576Z" fill="#8AA16D"/>
<path d="M57.6148 532.857C58.318 535.142 58.7282 537.428 58.611 539.772C58.5524 541.178 58.318 542.467 57.9664 543.815C58.318 543.932 58.611 543.991 58.9626 544.049C59.3728 542.643 59.5486 541.178 59.6072 539.772C59.7244 537.311 59.3142 534.791 58.3766 532.564C58.318 532.388 58.2008 532.388 58.0836 532.33C57.7906 532.271 57.4976 532.564 57.6148 532.857Z" fill="#8AA16D"/>
<path d="M30.8357 532.622C30.8357 532.74 30.8357 532.915 30.7771 532.974C30.6014 533.15 30.4256 533.267 30.3084 533.384C30.1326 535.259 30.0154 537.076 29.9568 538.951C29.8982 541.002 29.8982 543.053 29.8982 545.104C30.1912 545.045 30.4842 545.045 30.7771 545.162C31.0115 545.221 31.0701 545.572 30.8943 545.748C30.6014 546.041 30.2498 546.158 29.9568 546.334C30.0154 547.799 30.074 549.264 30.1912 550.729C30.3084 552.194 30.4256 553.659 30.6014 555.124C30.7772 554.889 31.0115 554.889 31.1873 555.065C31.2459 555.007 31.3045 554.948 31.4217 554.948C31.5389 554.948 31.5975 554.948 31.7147 554.948C31.1287 550.143 30.8943 545.279 31.0115 540.474C31.0701 538.306 31.1287 536.197 31.3045 534.029C31.3631 533.56 31.3631 533.15 31.4217 532.681C31.2459 532.681 31.0701 532.681 30.8357 532.622C30.8943 532.622 30.8357 532.622 30.8357 532.622Z" fill="#8AA16D"/>
<path d="M30.66 532.388C30.6014 532.095 30.7186 531.685 31.0116 531.744C31.1874 531.744 31.3046 531.744 31.4804 531.802C31.539 531.451 31.539 531.158 31.5976 530.806C31.7148 529.868 32.0664 528.755 31.5976 527.935C31.539 527.818 31.3632 527.818 31.3046 527.876C30.7186 528.579 30.7186 529.458 30.66 530.279C30.6014 530.982 30.4843 531.744 30.4257 532.447C30.4843 532.447 30.5429 532.388 30.66 532.388C30.6014 532.388 30.6014 532.388 30.66 532.388Z" fill="#8AA16D"/>
<path d="M31.3045 555.651C31.1287 556.062 30.9529 556.472 30.8357 556.882C31.5975 562.507 32.7108 568.015 34.2929 573.465C34.5859 574.578 34.9375 575.633 35.2891 576.747C35.4649 576.805 35.6993 576.864 35.8751 576.922C36.1095 576.922 36.3439 576.922 36.5196 576.922C36.2267 576.102 35.9923 575.34 35.7579 574.52C34.6445 570.828 33.707 567.136 32.9452 563.386C32.4764 560.867 32.0662 558.347 31.7733 555.769C31.6561 555.769 31.4803 555.71 31.3045 555.651C31.3631 555.651 31.3045 555.651 31.3045 555.651Z" fill="#8AA16D"/>
<path d="M30.8357 532.623C30.7185 532.564 30.6599 532.505 30.6599 532.447H30.6013C30.5427 532.447 30.4841 532.505 30.4255 532.505C29.3122 532.798 28.3746 533.502 27.4956 534.205C26.5581 534.966 25.7377 535.787 24.9759 536.724C23.3938 538.658 22.1633 540.885 21.2257 543.229C19.1162 548.678 19.0576 554.597 19.8193 560.339C19.9365 561.453 20.1123 562.507 20.3467 563.621C20.8155 564.09 21.3429 564.617 21.8117 565.086C20.9913 560.925 20.4053 556.706 20.5811 552.429C20.8155 547.506 22.1633 542.526 25.0345 538.541C25.7963 537.486 26.7339 536.431 27.73 535.552C28.5504 534.849 29.488 534.263 30.3669 533.56C30.5427 533.443 30.7185 533.267 30.8357 533.15C30.8357 532.916 30.8943 532.74 30.8357 532.623Z" fill="#8AA16D"/>
<path d="M37.5159 533.853C35.6994 532.681 33.6485 531.978 31.4804 531.802C31.3046 531.802 31.1874 531.802 31.0116 531.744C30.7186 531.744 30.5428 532.154 30.66 532.388C30.7186 532.505 30.7772 532.564 30.8358 532.564H30.8944C31.0702 532.564 31.246 532.623 31.4218 532.623C35.2306 533.209 38.5707 535.318 41.0318 538.307C43.9617 541.881 45.4266 546.334 46.247 550.788C46.6572 553.015 46.8915 555.3 47.1845 557.585C47.4189 556.53 47.6533 555.476 47.8877 554.48C46.8915 546.627 44.5476 538.307 37.5159 533.853Z" fill="#8AA16D"/>
<path d="M30.7772 545.104C30.4842 544.986 30.1912 544.986 29.8982 545.045C29.1951 545.162 28.4919 545.631 28.0231 546.041C27.1441 546.686 26.441 547.506 25.855 548.385C24.5658 550.319 23.9799 552.604 23.6283 554.831C22.9837 559.167 23.5697 563.562 24.6244 567.781C25.1518 568.308 25.6792 568.777 26.2066 569.246C25.7964 567.781 25.3862 566.316 25.0932 564.792C24.1557 560.046 23.8627 554.538 26.0894 550.084C26.6168 549.088 27.2613 548.092 28.0817 547.33C28.4919 546.92 28.9607 546.627 29.4881 546.334C29.6052 546.276 29.781 546.217 29.8982 546.158C30.2498 545.983 30.5428 545.865 30.8358 545.572C31.0702 545.514 31.0116 545.162 30.7772 545.104Z" fill="#8AA16D"/>
<path d="M45.1921 555.007C43.6099 551.374 40.973 548.151 37.4572 546.217C35.582 545.221 33.5311 544.635 31.363 544.693C30.8942 544.693 30.8356 545.514 31.363 545.514C35.0547 545.748 38.3947 547.623 40.9144 550.319C43.6685 553.307 45.1335 557.116 45.9538 561.042C46.0124 561.218 46.0124 561.394 46.071 561.57C46.071 561.511 46.1296 561.394 46.1296 561.335C46.3054 560.691 46.5398 560.046 46.7156 559.343C46.3054 557.937 45.8366 556.472 45.1921 555.007Z" fill="#8AA16D"/>
<path d="M31.3046 555.651C31.0702 555.593 31.0116 555.183 31.1874 555.007C31.0116 554.831 30.7772 554.831 30.6014 555.065L30.5428 555.124C29.6053 556.706 29.0193 558.523 28.5505 560.281C28.0818 562.039 27.7888 563.855 27.6716 565.672C27.5544 567.371 27.613 569.012 27.7888 570.711C28.1989 571.063 28.5505 571.414 28.9607 571.766C28.4333 568.25 28.5505 564.676 29.3123 561.218C29.6639 559.695 30.1913 558.23 30.7772 556.823C30.953 556.472 31.1288 556.062 31.3046 555.651Z" fill="#8AA16D"/>
<path d="M31.1872 555.007C31.0114 555.183 31.0114 555.534 31.3044 555.652H31.363C31.4802 555.652 31.656 555.71 31.7732 555.71C34.8203 556.179 36.8712 559.168 38.1018 561.746C39.7425 565.086 40.8558 568.719 41.5004 572.411C41.7934 571.942 42.0864 571.473 42.3208 571.004C42.0278 569.598 41.6176 568.25 41.2074 566.902C40.0941 563.445 38.6877 559.578 36.0508 556.999C34.8203 555.827 33.3553 555.007 31.656 554.948C31.5388 554.948 31.4802 554.948 31.363 554.948C31.3044 554.948 31.2458 555.007 31.1872 555.007Z" fill="#8AA16D"/>
<path d="M67.9863 601.006C68.3379 601.123 68.6895 601.24 69.0411 601.416C69.5685 599.775 69.4513 597.724 68.9825 596.201C68.6309 595.088 68.1621 594.033 67.459 593.154C66.8144 592.333 65.8182 591.22 64.7634 590.986C64.4119 590.927 64.1775 591.396 64.4119 591.689C64.7634 592.04 65.1736 592.333 65.5252 592.685C65.9354 593.037 66.2284 593.447 66.58 593.857C67.166 594.677 67.6347 595.615 67.9277 596.611C68.2207 597.549 68.2793 598.545 68.2207 599.541C68.2207 600.01 68.1621 600.479 67.9863 601.006Z" fill="#8AA16D"/>
<path d="M73.729 603.526C74.022 603.702 74.315 603.819 74.608 603.995C75.2526 602.823 75.4869 601.358 75.6041 600.069C75.7799 598.369 75.6627 596.611 75.3111 594.912C74.608 591.689 72.9087 588.525 70.2132 586.474C69.9788 586.532 69.7444 586.532 69.5686 586.591C69.4514 586.767 69.4514 587.001 69.5686 587.177C71.8539 589.404 73.5532 592.099 74.2564 595.322C74.608 596.846 74.6666 598.428 74.5494 600.01C74.4322 601.182 74.022 602.354 73.729 603.526Z" fill="#8AA16D"/>
<path d="M81.0536 608.8C81.288 608.975 81.4638 609.21 81.6396 609.385C84.6867 603.584 83.6319 595.908 79.8231 590.693C78.7097 589.169 77.4206 587.88 75.897 586.767C75.4868 586.474 75.1353 587.236 75.4868 587.529C80.409 591.396 82.9873 597.842 82.2256 604.053C82.0498 605.694 81.6396 607.276 81.0536 608.8Z" fill="#8AA16D"/>
<path d="M90.019 610.03C90.5464 608.272 90.8394 606.456 90.898 604.639C91.0152 601.006 90.312 597.373 88.7885 594.092C87.9095 592.216 86.7376 590.517 85.3312 589.052C84.9796 588.701 84.5694 589.287 84.8624 589.58C89.3159 594.97 91.1324 602.237 89.3745 609.034C89.1401 609.971 88.8471 610.909 88.4369 611.788C88.0853 612.667 87.4993 613.546 87.2063 614.425C87.0892 614.776 87.4993 615.069 87.7337 614.776C88.3197 614.191 88.7299 613.253 89.0815 612.55C89.4331 611.729 89.7847 610.909 90.019 610.03Z" fill="#8AA16D"/>
<path d="M93.3007 596.435C93.1249 595.908 92.4217 596.201 92.5975 596.67C93.7108 600.83 94.0038 605.166 93.4764 609.444C93.0077 613.78 91.6013 617.823 89.7262 621.749C89.7262 621.808 89.6676 621.867 89.6676 621.925C89.7262 622.042 89.7848 622.16 89.7848 622.277C89.9606 622.394 90.195 622.453 90.3708 622.16C92.6561 618.409 93.9452 613.956 94.414 609.62C94.9414 605.225 94.5312 600.713 93.3007 596.435Z" fill="#8AA16D"/>
<path d="M99.9808 570.184C97.9299 569.656 95.8204 569.188 93.7108 568.836C89.4918 568.133 85.1556 567.84 80.878 567.957C80.7022 567.957 80.5264 567.957 80.4092 567.957C80.1748 568.191 79.9404 568.426 79.6474 568.602C79.2372 568.953 79.0615 568.309 79.2372 568.016C75.3112 568.191 71.3266 568.719 67.5177 569.598C67.2833 569.949 67.0489 570.242 66.8145 570.594C66.463 571.121 65.9356 570.418 66.1114 570.008C66.1114 569.949 66.17 569.949 66.17 569.891C63.1229 570.594 60.1344 571.531 57.2045 572.645C57.0873 573.055 56.9701 573.407 56.8529 573.817C56.6771 574.461 55.8568 574.227 55.974 573.582C56.0326 573.407 56.0912 573.231 56.1498 573.055C56.0326 573.114 55.974 573.114 55.8568 573.172C52.2237 574.696 48.5321 576.512 45.192 578.68C45.3092 579.091 45.485 579.442 45.6608 579.794C48.5321 578.036 51.462 576.395 54.6262 575.047C58.4937 573.348 62.5369 572.059 66.6388 571.121C74.8424 569.246 83.4563 568.895 91.8357 570.125C94.121 570.477 96.4063 570.887 98.6916 571.473C98.926 571.531 99.1604 571.59 99.3948 571.649C99.9222 571.238 100.45 570.828 100.918 570.418C100.625 570.359 100.274 570.301 99.9808 570.184Z" fill="#8AA16D"/>
<path d="M79.7059 568.66C79.9403 568.426 80.1747 568.191 80.4677 568.015C81.5225 567.078 82.5186 566.199 83.6906 565.379C84.5695 564.793 85.5657 564.207 86.5032 563.738C85.8587 563.679 85.1555 563.621 84.5109 563.562C84.3351 563.679 84.1593 563.796 83.925 563.914C82.2256 565.027 80.4677 566.316 79.2372 568.015C79.2372 568.015 79.2372 568.015 79.2372 568.074C79.0614 568.367 79.2957 569.012 79.7059 568.66Z" fill="#8AA16D"/>
<path d="M66.7559 570.653C66.9903 570.301 67.2247 569.949 67.4591 569.656C68.2795 568.543 69.1584 567.43 70.1546 566.492C71.2093 565.437 72.4399 564.5 73.6704 563.738C72.9087 563.797 72.1469 563.914 71.3851 563.972C69.217 565.613 67.3419 567.664 66.1113 570.008C66.1113 570.067 66.0527 570.067 66.0527 570.125C65.8769 570.477 66.4043 571.18 66.7559 570.653Z" fill="#8AA16D"/>
<path d="M56.853 573.875C56.9702 573.465 57.0874 573.113 57.2046 572.703C58.0836 570.125 59.6071 567.84 61.5994 566.023C61.7166 565.965 61.7752 565.847 61.8924 565.789C61.5408 565.906 61.1892 565.965 60.8963 566.082C60.6033 566.199 60.2517 566.258 59.9001 566.375C58.1422 568.309 56.853 570.652 56.1499 573.172C56.0913 573.348 56.0327 573.524 55.9741 573.699C55.8569 574.285 56.6772 574.52 56.853 573.875Z" fill="#8AA16D"/>
<path d="M83.5736 549.382C83.6908 548.268 82.6946 546.979 81.9914 546.217C81.1711 545.28 80.1163 544.518 78.9444 543.991C77.6552 543.405 76.2489 543.17 74.9011 543.288C74.2566 543.346 73.612 543.463 72.9674 543.639C72.3228 543.815 71.5611 544.049 71.2095 544.635C71.0337 544.928 71.2095 545.339 71.5611 545.397C72.0884 545.456 72.733 545.046 73.2018 544.87C73.7878 544.694 74.3737 544.577 74.9597 544.577C76.1903 544.518 77.4208 544.753 78.5342 545.28C79.5303 545.749 80.4093 546.393 81.1125 547.214C81.4641 547.624 81.7571 548.034 81.9914 548.503C82.1086 548.737 82.2258 549.089 82.4016 549.323C82.8118 549.382 83.222 549.382 83.5736 549.382Z" fill="#8AA16D"/>
<path d="M94.2382 548.034C93.9452 547.214 93.5936 546.393 93.1248 545.631C92.2459 544.225 91.0739 542.936 89.7262 541.998C86.6791 539.889 82.6945 539.303 79.1786 540.592C78.7684 540.768 78.827 541.471 79.3544 541.354C82.6359 540.533 86.2689 541.061 89.0816 542.995C90.3707 543.874 91.4255 545.046 92.2459 546.393C92.656 547.038 92.949 547.741 93.242 548.444C93.3592 548.796 93.4764 549.206 93.535 549.616C93.8866 549.616 94.2968 549.616 94.6484 549.616C94.5312 549.089 94.414 548.503 94.2382 548.034Z" fill="#8AA16D"/>
<path d="M103.262 548.444C102.501 546.979 101.504 545.573 100.391 544.342C98.1644 541.881 95.3517 539.947 92.246 538.834C90.4881 538.189 88.613 537.779 86.7378 537.838C86.3276 537.838 86.1519 538.658 86.6206 538.775C89.7849 539.244 92.7148 540.065 95.4689 541.822C98.1058 543.522 100.391 545.866 101.973 548.561C102.208 548.971 102.442 549.382 102.618 549.85C103.028 549.85 103.497 549.85 103.907 549.85C103.673 549.382 103.497 548.913 103.262 548.444Z" fill="#8AA16D"/>
<path d="M111.29 549.675C111.114 548.796 110.939 547.975 110.646 547.096C110.118 545.456 109.357 543.932 108.419 542.467C106.485 539.537 103.731 537.31 100.508 535.963C98.6918 535.201 96.8166 534.732 94.8829 534.674C94.4727 534.674 94.3556 535.435 94.7657 535.494C98.9262 536.139 102.852 537.896 105.723 540.944C107.188 542.467 108.36 544.284 109.122 546.217C109.532 547.155 109.825 548.151 110.06 549.147C110.118 549.382 110.118 549.616 110.177 549.792C110.587 549.792 110.939 549.792 111.349 549.792C111.29 549.909 111.29 549.792 111.29 549.675Z" fill="#8AA16D"/>
<path d="M10.3851 599.073C9.97495 598.721 9.56476 598.428 9.03739 598.194C7.80684 598.545 6.63488 599.014 5.46293 599.424C3.23622 600.245 1.00951 601.182 -1.1 602.237C-1.56878 602.471 -2.09616 602.706 -2.56494 602.999C-2.33055 603.35 -2.15476 603.702 -1.97897 604.112C-1.97897 604.112 -1.97897 604.112 -1.97897 604.171C0.247744 603.057 2.53305 602.002 4.81836 601.065C6.63489 600.303 8.51001 599.717 10.3851 599.073Z" fill="#8AA16D"/>
<path d="M29.8981 589.873C35.9923 586.122 46.4227 586.24 49.8799 592.744C52.048 596.846 51.3449 601.944 49.2939 606.046C47.1844 610.147 43.903 613.487 40.6215 616.769C40.4457 616.945 40.2113 617.179 39.9183 617.12C39.7425 617.062 39.6253 616.945 39.5081 616.827C35.8165 612.491 32.1834 608.155 28.4918 603.819C27.5542 602.705 26.6167 601.592 26.0307 600.244C24.0384 595.791 26.1479 592.099 29.8981 589.873Z" fill="#3C630B"/>
<path d="M7.45519 581.727C5.87306 581.61 4.29092 581.552 2.76738 581.903C0.247687 582.548 -1.80323 584.306 -3.73695 586.064C-5.67067 587.822 -7.60439 589.755 -8.36616 592.275C-8.48336 592.744 -8.60055 593.271 -8.42476 593.74C-8.07318 594.795 -6.84263 595.088 -5.78787 595.263C1.00945 596.377 7.92397 596.787 14.8385 596.435C19.7607 596.201 25.0931 595.439 28.6675 592.041C29.7223 591.044 30.6012 589.755 30.484 588.349C30.3668 586.943 29.1949 585.829 27.8471 585.302C21.9288 583.075 13.7837 582.255 7.45519 581.727Z" fill="#3C630B"/>
<path d="M298.318 750.361C315.274 749.389 332.142 748.418 349.098 747.446C354.573 723.337 357.046 698.61 356.516 673.97C344.947 673.087 333.29 672.293 321.721 671.674C314.568 671.321 307.503 670.085 300.438 670.085C296.905 670.085 293.638 670.791 290.194 671.144C287.191 671.409 284.365 670.526 281.274 670.968C280.479 686.599 286.043 700.994 289.84 716.184C290.459 719.098 297.347 750.361 298.318 750.361Z" fill="#E6B535"/>
<path d="M281.892 671.586C281.186 674.147 282.775 676.885 284.983 678.298C287.191 679.711 289.929 680.152 292.49 680.506C310.152 683.067 328.08 685.628 345.742 683.067C348.215 682.713 350.864 682.183 352.895 680.77C363.581 673.441 346.978 665.139 340.267 665.051C328.521 664.874 318.189 660.105 306.002 662.048C299.731 663.108 284.188 663.55 281.892 671.586Z" fill="#85876F"/>
<path d="M333.378 557.31C333.467 555.014 334.173 552.1 336.469 551.747C340.532 559.96 341.503 569.232 342.475 578.24C340.973 565.523 339.737 551.923 345.565 540.531C346.184 539.383 347.155 538.058 348.48 538.058C350.246 538.058 351.041 540.266 351.306 542.032C353.072 553.513 352.807 565.258 350.511 576.651C352.454 568.526 356.251 560.754 361.462 554.219C362.963 552.365 364.641 550.51 366.937 549.715C369.145 548.921 372.059 549.45 373.296 551.57C374.709 553.954 373.207 556.957 371.706 559.341C366.319 568.084 360.932 576.827 355.545 585.658C358.901 581.066 362.257 576.474 366.584 572.853C370.911 569.232 376.475 566.671 382.127 567.025C375.592 576.916 368.438 586.365 360.755 595.373C367.29 590.781 374.885 587.69 382.745 586.277C383.981 589.191 382.657 592.635 380.449 594.931C378.241 597.227 375.327 598.552 372.501 599.965C360.137 605.97 348.48 613.477 337.882 622.22C340.002 620.454 340.09 608.531 340.532 605.529C341.503 599.612 340.443 597.581 338.412 592.194C334.35 581.243 332.849 569.056 333.378 557.31Z" fill="#3C630B"/>
<path d="M275.622 554.749C273.061 553.866 270.058 552.541 269.617 549.892C269.175 547.419 271.295 545.123 273.591 544.151C278.89 541.767 285.071 543.71 290.547 545.741C297.612 548.302 304.589 550.863 311.654 553.424C298.495 546.977 286.043 539.118 274.562 530.11C273.503 529.227 272.355 528.343 271.825 527.107C270.942 524.988 272.09 522.515 273.944 521.19C275.799 519.954 278.183 519.689 280.479 520.042C284.277 520.66 287.721 522.692 290.988 524.723C298.495 529.315 306.002 533.819 313.42 538.411C305.03 532.494 296.729 526.577 288.339 520.66C286.22 519.159 283.923 517.569 282.775 515.185C281.539 512.801 281.804 509.533 284.012 508.032C286.573 506.265 290.017 507.943 292.666 509.533C299.201 513.507 305.737 517.481 312.272 521.543C305.118 513.33 295.139 508.208 286.043 502.203C276.947 496.198 268.116 488.426 265.29 477.917C268.38 475.886 272.531 477.211 275.975 478.712C287.368 483.746 297.877 490.634 307.061 499.112C295.581 489.839 285.778 478.624 278.007 466.172C280.568 463.699 284.718 466.613 287.014 469.439C293.549 477.387 300.085 485.335 306.62 493.284C299.201 479.065 294.433 463.787 292.49 448.156C292.225 445.86 292.225 443.034 294.256 441.886C297.17 440.296 299.996 444.182 301.144 447.361C306.002 461.403 309.711 475.886 312.272 490.546C312.007 471.647 318.542 452.748 330.376 438C335.763 454.868 328.168 473.06 319.248 488.426C325.519 478.977 332.672 470.057 340.532 461.933C344.682 469.969 344.682 479.772 342.033 488.338C339.295 496.993 333.997 504.587 327.903 511.299C333.908 503.086 340.002 494.873 346.007 486.66C347.862 484.099 350.864 481.185 353.778 482.509C354.838 486.66 352.63 490.987 350.334 494.608C342.033 507.855 332.23 520.219 321.28 531.346C332.495 525.253 337.971 511.034 349.893 506.53C351.659 512.447 348.038 518.453 344.506 523.575C338.589 532.053 332.407 540.354 325.96 548.479C332.672 539.647 340.355 531.523 349.01 524.546C350.423 523.398 352.454 522.25 353.867 523.31C355.103 524.193 355.015 525.959 354.662 527.46C353.249 533.554 349.01 538.499 344.859 543.18C338.765 550.068 332.76 556.957 326.667 563.933C319.248 572.411 314.656 565.876 306.531 563.668C296.287 560.666 285.866 558.105 275.622 554.749Z" fill="#8AA16D"/>
<path d="M321.28 579.565C319.337 575.855 317.659 570.822 320.75 568.084C322.781 566.318 326.048 566.671 328.256 568.172C330.464 569.674 331.965 572.058 333.378 574.354C335.586 577.975 337.794 581.596 340.09 585.217C334.261 574.266 330.994 561.99 330.464 549.627C330.376 546.889 330.641 543.621 332.937 542.12C336.558 539.824 340.797 543.886 343.093 547.507C346.625 553.159 349.804 559.076 352.63 565.17C350.423 557.486 348.921 549.538 348.303 541.59C347.597 533.112 348.215 523.575 354.308 517.569C354.75 517.128 355.28 516.686 355.81 516.598C356.605 516.421 357.399 516.863 358.018 517.393C359.872 518.982 360.402 521.632 360.755 524.104C361.992 532.847 362.61 541.679 362.521 550.421C365.877 537.793 361.373 523.928 365.524 511.564C366.495 508.826 368.968 505.647 371.706 506.795C373.914 507.678 374.267 510.681 374.267 513.065C374.09 523.486 374.002 533.819 373.825 544.24C373.472 534.349 374.444 524.193 377.976 514.92C381.509 505.647 387.779 497.257 396.345 492.224C397.228 505.117 392.901 517.746 388.662 530.021C392.194 520.219 396.61 510.769 401.997 501.938C404.735 497.434 408.532 492.665 413.743 492.842C414.537 502.115 412.065 511.652 406.854 519.424C398.465 532.052 384.158 539.117 372.766 549.097C361.197 559.253 352.895 572.323 345.212 585.57C343.093 589.191 338.147 602.614 333.202 601.024C328.609 599.17 323.487 583.715 321.28 579.565Z" fill="#63823C"/>
<path d="M327.02 667.877C325.607 656.308 326.137 644.474 328.168 632.993C330.199 621.513 333.643 610.297 338.324 599.611C343.093 588.749 348.921 578.416 355.721 568.702C358.989 564.022 362.61 559.606 366.054 554.925C368.88 551.128 371.441 547.066 374.09 543.092C376.386 539.736 378.859 536.468 381.95 533.819C385.218 530.993 389.015 529.227 393.254 528.167C394.49 527.902 395.815 527.637 397.14 527.46C398.465 527.284 398.641 524.811 397.228 524.988C392.548 525.606 387.955 527.019 383.893 529.58C380.36 531.876 377.534 534.967 375.062 538.323C372.236 542.032 369.851 546.006 367.202 549.892C364.023 554.572 360.402 558.899 357.046 563.492C349.981 573.294 343.711 583.715 338.677 594.666C333.643 605.528 329.758 616.921 327.373 628.666C324.989 640.323 324.282 652.157 325.43 663.991C325.607 665.492 325.695 666.905 325.96 668.407C325.872 669.378 327.196 668.76 327.02 667.877Z" fill="#63823C"/>
<path d="M322.163 671.851C322.428 666.199 322.251 660.459 322.074 654.718C321.809 649.243 321.456 643.679 320.573 638.204C319.072 628.578 316.334 619.04 311.389 610.474C310.064 608.178 308.651 605.97 307.061 603.939C305.472 601.908 303.882 599.7 301.763 598.198C300.879 597.58 300.085 599.082 300.615 599.788C302.028 601.643 303.794 603.232 305.295 604.999C306.708 606.765 307.944 608.619 309.181 610.562C311.565 614.448 313.508 618.687 315.009 623.014C318.454 632.729 319.778 643.061 320.396 653.305C320.75 659.487 320.661 665.669 321.015 671.851C321.015 672.734 322.163 672.646 322.163 671.851Z" fill="#63823C"/>
<path d="M326.225 672.999C324.812 659.929 323.222 646.859 321.986 633.7C320.75 620.541 319.867 607.383 319.072 594.224C318.63 586.806 318.277 579.388 318.012 571.881C317.924 570.468 316.069 570.645 316.069 571.97C316.599 585.217 317.305 598.463 318.365 611.622C319.513 624.78 320.661 637.939 322.163 651.009C323.046 658.427 323.929 665.934 325.165 673.264C325.342 674.147 326.225 673.705 326.225 672.999Z" fill="#63823C"/>
<path d="M332.319 670.879C333.378 651.009 336.028 631.227 340.443 611.887C341.062 609.149 341.68 606.5 342.386 603.762C343.093 601.113 343.976 598.375 344.417 595.637C344.594 594.489 343.358 594.136 342.916 595.284C342.033 597.669 341.503 600.23 340.885 602.614C340.267 604.998 339.737 607.471 339.119 609.856C337.971 614.713 336.999 619.658 336.116 624.604C334.35 634.318 333.025 644.121 332.054 653.923C331.524 659.575 331.259 665.227 330.994 670.879C330.994 671.851 332.23 671.763 332.319 670.879Z" fill="#63823C"/>
<path d="M265.643 582.037C264.671 580.889 263.612 579.388 264.141 577.975C265.025 575.414 268.734 576.297 271.03 577.71C280.126 583.362 288.251 590.604 295.051 598.817C290.37 591.134 285.778 583.45 281.097 575.679C279.684 573.383 278.36 570.998 278.183 568.349C278.007 565.7 279.684 562.785 282.246 562.344C285.336 561.902 287.721 564.817 289.31 567.466C294.344 575.767 298.672 584.51 302.204 593.606C298.495 581.419 297.17 568.614 298.318 555.897C298.495 554.131 298.848 552.1 300.35 551.216C303.176 549.538 306.09 553.336 307.061 556.515C310.859 568.614 311.477 581.419 312.183 594.048C312.802 582.656 314.656 571.263 317.659 560.224C318.277 558.016 319.513 555.367 321.809 555.367C324.282 555.367 325.342 558.458 325.695 560.842C327.638 576.65 322.693 592.458 317.835 607.56C310.859 629.284 272.531 590.427 265.643 582.037Z" fill="#3C630B"/>
</g>
<defs>
<clipPath id="clip0">
<rect width="375" height="812" fill="white"/>
</clipPath>
</defs>
</svg>
