<?xml version="1.0" encoding="utf-8"?>
<!-- Generator: Adobe Illustrator 24.3.0, SVG Export Plug-In . SVG Version: 6.00 Build 0)  -->
<svg version="1.1" id="Layer_1" xmlns="http://www.w3.org/2000/svg" xmlns:xlink="http://www.w3.org/1999/xlink" x="0px" y="0px"
	 viewBox="0 0 216 216" style="enable-background:new 0 0 216 216;" xml:space="preserve">
<style type="text/css">
	.st0{fill:#396754;}
	.st1{fill:#4D8970;}
	.st2{fill:#F48578;}
	.st3{fill:#FCDEDF;}
	.st4{fill:#FFFFFF;}
</style>
<g>
	<g>
		<path class="st0" d="M106.5,81.4c-0.6,0.8-1.1,1.7-1.7,2.5c-3.3,3.6-9.9,4-13.5,0.7c-1.2-1-2-2.3-2.9-3.6
			C79.6,67.6,66.6,58,58.5,44.1C72.8,50,84.9,60.3,92.6,73c-4.5-11.6-9-23.1-13.5-34.7c7.8,7.5,12.8,17.5,14.1,28
			c5.5-12,11.1-24.1,16.6-36.1c-4.3,13.3-8.6,26.6-12.8,39.9c6.4-10.6,12.8-21.2,19.3-31.8c-4.8,13.3-9.6,26.6-14.4,39.8
			c7.4-13,17.3-24.7,29-34.4c-6.1,10.9-12.2,21.9-18.3,32.8c-1.6,2.8-3.3,5.7-6.2,7.2c-9.9,4.9-16.8-8.1-23.2-12.7
			c-0.8-0.6-1.7-1.2-2.5-1.8"/>
		<path class="st1" d="M67.9,59.2c6.9,2.6,12.4,7.8,16.3,13.7c3.6,5.4,8.9,13.9,9,20.3c-4.3-2.6-7.4-8.2-10.5-12
			c-2.5-3.1-5.3-6-7.7-9.2C73.7,70.3,69.3,59.8,67.9,59.2z"/>
		<path class="st1" d="M134.9,52.8c-3.1,4.1-6.2,8.1-9.3,12.2c-7.3,9.5-14.6,19-21.9,28.4c-4.3-4.5-4.4-5-0.6-9.9
			c3.1-4,6.5-7.8,10-11.5C119.4,65.4,129.6,59.8,134.9,52.8z"/>
		<path class="st1" d="M91.5,44.6c10.1,13.6,15.5,30.1,15.3,46.7c0-1-14.2-1.8-15.4-2.8c-2.6-2.2-1.5-8.9-1.6-12.3
			C89.7,65.6,90.2,55.1,91.5,44.6z"/>
		<path class="st2" d="M60.1,85.4h78.4l-9.8,76.5c-20.6,7.5-43.8,6.9-64-1.6L60.1,85.4z"/>
		<path class="st3" d="M60.1,85.4h78.4l-3.6,29.7c-20.6,2.9-52.9,2.6-73-0.7L60.1,85.4z"/>
	</g>
	<g>
		<path class="st4" d="M72.3,126.2c-0.4,0.4-0.9,0.9-1.3,1.3c-0.9,0.9-1.5,2.2-1.5,3.5c0,0.7,0.1,1.3,0.4,1.9c0.2,0.6,0.5,1.1,1,1.6
			c0.9,0.9,2.2,1.5,3.5,1.5c1.3-0.1,2.6-0.5,3.5-1.5c0.4-0.4,0.9-0.9,1.3-1.3c0.9-0.9,1.5-2.2,1.5-3.5c0-0.7-0.1-1.3-0.4-1.9
			c-0.2-0.6-0.5-1.1-1-1.6c-0.9-0.9-2.2-1.5-3.5-1.5C74.5,124.8,73.2,125.3,72.3,126.2L72.3,126.2z"/>
	</g>
	<g>
		<path class="st4" d="M99.6,134.7c6.4,0,6.4-9.9,0-9.9C93.2,124.8,93.2,134.7,99.6,134.7L99.6,134.7z"/>
	</g>
	<g>
		<path class="st4" d="M89,142c-0.4,0-0.9,0-1.3,0c-1.3,0-2.6,0.6-3.5,1.5c-0.5,0.4-0.8,1-1,1.6c-0.3,0.6-0.5,1.2-0.4,1.9
			c0.1,1.3,0.5,2.6,1.5,3.5c1,0.9,2.2,1.5,3.5,1.5c0.4,0,0.9,0,1.3,0c1.3,0,2.6-0.6,3.5-1.5c0.5-0.4,0.8-1,1-1.6
			c0.3-0.6,0.5-1.2,0.4-1.9c-0.1-1.3-0.5-2.6-1.5-3.5C91.6,142.6,90.4,142,89,142L89,142z"/>
	</g>
	<g>
		<path class="st4" d="M111.5,159.9c6.4,0,6.4-9.9,0-9.9C105.1,149.9,105.1,159.9,111.5,159.9L111.5,159.9z"/>
	</g>
	<g>
		<path class="st4" d="M116.8,130.1c-0.4,0-0.9,0-1.3,0c-1.3,0-2.6,0.6-3.5,1.5c-0.5,0.4-0.8,1-1,1.6c-0.3,0.6-0.5,1.2-0.4,1.9
			c0.1,1.3,0.5,2.6,1.5,3.5c1,0.9,2.2,1.5,3.5,1.5c0.4,0,0.9,0,1.3,0c1.3,0,2.6-0.6,3.5-1.5c0.5-0.4,0.8-1,1-1.6
			c0.3-0.6,0.5-1.2,0.4-1.9c-0.1-1.3-0.5-2.6-1.5-3.5C119.4,130.6,118.2,130.1,116.8,130.1L116.8,130.1z"/>
	</g>
</g>
</svg>
