<?xml version="1.0" encoding="utf-8"?>
<!-- Generator: Adobe Illustrator 24.3.0, SVG Export Plug-In . SVG Version: 6.00 Build 0)  -->
<svg version="1.1" id="Layer_1" xmlns="http://www.w3.org/2000/svg" xmlns:xlink="http://www.w3.org/1999/xlink" x="0px" y="0px"
	 viewBox="0 0 288 288" style="enable-background:new 0 0 288 288;" xml:space="preserve">
<style type="text/css">
	.st0{fill:#99CA94;}
	.st1{fill:#0D2722;}
	.st2{fill:#436F45;}
	.st3{fill:#2E4F2B;}
	.st4{fill:#DBCF68;}
	.st5{fill:#ADD4A9;}
	.st6{fill:#FFFFFF;}
</style>
<g>
	<g>
		<path class="st0" d="M181.4,85.2c10.6-6,24-8.6,36.8-7.1c6.6,0.7,14,3.5,15.1,8.8c1.2,5.6-5.3,10.2-11.3,13
			c-12.5,5.8-37.3,15-52,11.5C152.5,107.3,174,89.4,181.4,85.2z"/>
		<path class="st1" d="M145.7,144.8c0.2-0.3,0.3-0.6,0.4-0.8c7.9-17-2.9-38.9-16.3-49.7c-4.9-3.9-11.8-7.3-18.2-5.4
			c-4.2,1.2-7.1,4.5-8.2,8.1c-1.1,3.5-0.8,7.3-0.1,10.9c1.8,9.3,5.7,18.1,11,25.9c4.6,6.7,13,18.9,22.4,17.9
			C140.6,151.1,143.8,148.2,145.7,144.8z"/>
		<path class="st2" d="M95.8,47.9c-3.1,1.3-4.8,4.2-5,7c-0.2,2.8,0.8,5.6,2,8.3c5.5,12.2,14.9,23.2,27.1,31.5c2.9,2,6,3.9,9.6,4.8
			c3.6,0.9,7.7,0.8,10.8-1C159.9,87,112.3,41.1,95.8,47.9z"/>
		<path class="st2" d="M179.7,97.1c4.2-2,9.7-3.7,13.7-1.4c2.5,1.4,3.7,4.1,3.5,6.6c-0.1,2.5-1.3,4.9-2.8,7.1
			c-7.5,11.7-21.3,20.6-37,23.8c-20.5,4.2-12.1-8.7-4.9-16.4C159.8,108.8,169.1,102,179.7,97.1z"/>
		<path class="st2" d="M138.4,147.4c6.5-3.3,14.1-5,21.5-6.7c3.3-0.8,6.7-1.5,10.1-1.4c3.4,0.1,7,1.1,9.1,3.4
			c2.1,2.2,2.4,5.2,1.5,7.9c-0.9,2.7-2.8,5-5,7.1c-8.6,8.4-21.4,13.7-34.6,14.5C117.7,173.5,124.8,154.3,138.4,147.4z"/>
		<g>
			<path class="st3" d="M146.3,81.7c-1.5,20.6-2,41.2-1.4,61.8c0.2,7.4,0.5,14.9-0.6,22.3c-1.1,7.3-3.5,14.4-4.6,21.6
				c-0.9,6-0.9,12.1-0.8,18.1"/>
			<g>
				<path class="st3" d="M144.3,81.7c-1.2,16.2-1.7,32.5-1.6,48.8c0.1,8.1,0.5,16.2,0.4,24.4c0,4-0.3,8-0.9,11.9
					c-0.7,4-1.7,7.9-2.7,11.8c-1.1,4.4-1.9,8.8-2.3,13.2c-0.4,4.6-0.3,9.2-0.3,13.7c0,2.1,3.9,2.1,3.9,0c-0.1-8.1,0.1-16.1,2-24.1
					c1.8-7.8,3.8-15.5,4.2-23.5c0.3-8.1-0.2-16.2-0.3-24.3c-0.1-8.2,0-16.3,0.2-24.5c0.3-9.2,0.7-18.3,1.4-27.5
					C148.4,79.6,144.5,79.6,144.3,81.7L144.3,81.7z"/>
			</g>
		</g>
		<path class="st4" d="M118.6,189.1l51.8,0.1c0,8.8,0,17.6,0,26.4c0,13.4,0.7,25.5-20.5,27.1c-22.7,1.7-22.5-12.3-25.4-26
			C122.5,207.6,120.5,198.3,118.6,189.1z"/>
		<path class="st2" d="M127.7,81.4c-3.3-15.1,6.2-31.6,22.6-39c4.9-2.2,11-3.7,16.1-1.8c3.8,1.4,6.4,4.4,7.7,7.7
			c1.3,3.3,1.4,6.7,1.4,10.2c0,6-0.5,12.1-2.9,17.8c-2.3,5.7-6.6,11.1-12.9,14.1C147.7,96.4,130.4,93.7,127.7,81.4z"/>
		<path class="st3" d="M215,136.5c9.4,2.1,19.3,7.4,20,15.4c0.5,5.8-4.2,11.3-10.3,14.2c-6.1,2.9-13.4,3.8-20.4,4.1
			c-9.8,0.5-20,0-28.9-3.4c-6.1-2.3-14.3-7.1-17-12.5c-3.3-6.9,2.3-9.5,9.5-12.8C182,135,199.3,132.9,215,136.5z"/>
		<path class="st3" d="M74.5,155.1c-5.5,3-10.4,7.7-10.3,13.1c0.1,6.6,7.4,11.6,14.7,14.4c10.1,3.9,21.4,5.7,32.5,5.2
			c18-0.9,38.7-16.3,20-29C115.7,148,91.8,145.5,74.5,155.1z"/>
		<path class="st3" d="M162.8,171.6c9,2.5,15.9,8.6,21.7,14.8c2.2,2.4,4.4,4.8,5.5,7.7c1.1,2.8,1,6.2-1.1,8.6
			c-2.8,3.2-8.1,4-12.9,3.9c-14.6-0.3-28.4-7.8-35.4-18.2C132.2,175.7,147.7,167.3,162.8,171.6z"/>
		<path class="st3" d="M67.9,94.1c-3.1,0.3-6.2,0.9-8.8,2.3c-2.6,1.4-4.5,3.8-4.3,6.3c0.3,2.9,3.2,5.1,6,6.9
			c15.1,9.7,32.9,16.7,51.6,20.2c4.3,0.8,8.8,1.4,13.1,0.7c23.5-4.1,0.3-20.4-7.7-25.4C103.7,96.5,85.4,92.2,67.9,94.1z"/>
		<g>
			<path class="st5" d="M160.2,44.6c-2.7,3-5,6.3-7,9.7c-2.1,3.5-4.2,7-6.1,10.5c-3.6,6.8-6.4,14.1-5,21.7c0.2,1,2.1,0.6,1.9-0.4
				c-1.4-7.5,1.7-14.8,5.4-21.5c3.6-6.5,7.3-13.3,12.5-19.1C162.6,44.5,160.9,43.7,160.2,44.6L160.2,44.6z"/>
		</g>
		<g>
			<path class="st5" d="M155.9,58.4c3.8-2.1,8-3.8,12.4-5c1.2-0.3,0.7-1.9-0.5-1.6c-4.6,1.2-8.9,3-12.8,5.2
				C153.9,57.6,154.9,59,155.9,58.4L155.9,58.4z"/>
		</g>
		<g>
			<path class="st5" d="M149.6,65.3c6-1.2,11.9-2.5,17.9-3.7c1.2-0.3,0.7-1.8-0.5-1.6c-6,1.2-11.9,2.5-17.9,3.7
				C147.8,64,148.3,65.6,149.6,65.3L149.6,65.3z"/>
		</g>
		<g>
			<path class="st5" d="M145.6,72.8c5.9-1.6,11.9-3,18-4.1c1.2-0.2,0.7-1.8-0.5-1.6c-6.1,1.1-12.1,2.4-18,4.1
				C143.9,71.6,144.4,73.2,145.6,72.8L145.6,72.8z"/>
		</g>
		<g>
			<path class="st5" d="M146.9,78.8c4.1-0.4,8-1.2,11.9-2.3c1.2-0.3,0.7-1.9-0.5-1.6c-3.7,1.1-7.5,1.8-11.4,2.3
				C145.7,77.3,145.6,78.9,146.9,78.8L146.9,78.8z"/>
		</g>
		<g>
			<path class="st5" d="M150.9,57c-1-2.4-1.9-4.8-2.9-7.1c-0.4-1-2.3-0.6-1.9,0.4c1,2.4,1.9,4.8,2.9,7.1
				C149.5,58.4,151.3,58,150.9,57L150.9,57z"/>
		</g>
		<g>
			<path class="st5" d="M147.7,65.1c-1.8-2.1-3.1-4.4-3.9-6.9c-0.3-1-2.2-0.6-1.9,0.4c0.9,2.6,2.3,5,4.1,7.2
				C146.8,66.8,148.5,66,147.7,65.1L147.7,65.1z"/>
		</g>
		<g>
			<path class="st5" d="M141.6,74.1c-1.6-2.3-3.3-4.7-4.9-7c-0.6-0.9-2.3-0.1-1.7,0.8c1.6,2.3,3.3,4.7,4.9,7
				C140.5,75.8,142.2,75,141.6,74.1L141.6,74.1z"/>
		</g>
		<g>
			<path class="st5" d="M140.6,82.3c-2.1-1.5-4.1-3-6.2-4.6c-0.9-0.7-2.3,0.4-1.4,1.1c2.1,1.5,4.1,3,6.2,4.6
				C140.1,84.2,141.5,83,140.6,82.3L140.6,82.3z"/>
		</g>
		<g>
			<path class="st5" d="M151.2,130.6c13.3-6.6,25.1-15.2,34.6-25.3c0.8-0.8-0.6-2-1.4-1.1c-9.4,10-21,18.5-34.2,25
				C149.1,129.7,150.1,131.1,151.2,130.6L151.2,130.6z"/>
		</g>
		<g>
			<path class="st5" d="M158.9,125.9c-0.6-2.9,0.1-5.9,1.9-8.5c0.6-0.9-1.1-1.7-1.7-0.8c-2.1,3-2.8,6.4-2.1,9.7
				C157.2,127.4,159.1,126.9,158.9,125.9L158.9,125.9z"/>
		</g>
		<g>
			<path class="st5" d="M167.5,120c1.5-3.4,3.1-6.9,4.6-10.3c0.4-1-1.5-1.4-1.9-0.4c-1.5,3.4-3.1,6.9-4.6,10.3
				C165.2,120.5,167.1,120.9,167.5,120L167.5,120z"/>
		</g>
		<g>
			<path class="st5" d="M178.2,108.9c1.1-2.6,2.2-5.1,3.3-7.7c0.4-1-1.5-1.4-1.9-0.4c-1.1,2.6-2.2,5.1-3.3,7.7
				C175.9,109.5,177.8,109.9,178.2,108.9L178.2,108.9z"/>
		</g>
		<g>
			<path class="st5" d="M161.8,127.6c4.2,0,8.4,0,12.5,0c1.3,0,1.3-1.6,0-1.6c-4.2,0-8.4,0-12.5,0
				C160.5,126,160.5,127.6,161.8,127.6L161.8,127.6z"/>
		</g>
		<g>
			<path class="st5" d="M170.4,119.9c2.9,0,5.7,0,8.6,0c1.3,0,1.3-1.6,0-1.6c-2.9,0-5.7,0-8.6,0
				C169.1,118.3,169.1,119.9,170.4,119.9L170.4,119.9z"/>
		</g>
		<g>
			<path class="st5" d="M177.7,114.6c2.4-0.6,4.9-0.8,7.3-0.5c1.2,0.1,1.8-1.4,0.5-1.6c-2.8-0.3-5.6-0.2-8.4,0.5
				C176,113.4,176.5,114.9,177.7,114.6L177.7,114.6z"/>
		</g>
		<g>
			<path class="st5" d="M167.2,149.9c21.1,2.2,42.3,3.4,63.6,3.5c1.3,0,1.3-1.6,0-1.6c-21.3-0.1-42.5-1.3-63.6-3.5
				C165.9,148.2,166,149.8,167.2,149.9L167.2,149.9z"/>
		</g>
		<g>
			<path class="st5" d="M174.1,148.3c5.5-2.4,10.9-4.8,16.4-7.3c1.1-0.5,0.1-1.9-1-1.4c-5.5,2.4-10.9,4.8-16.4,7.3
				C172,147.4,173,148.8,174.1,148.3L174.1,148.3z"/>
		</g>
		<g>
			<path class="st5" d="M182.7,148.8c5.9-3.3,12.2-6.2,18.6-8.7c1.1-0.4,0.1-1.8-1-1.4c-6.5,2.5-12.7,5.4-18.6,8.7
				C180.7,148,181.6,149.4,182.7,148.8L182.7,148.8z"/>
		</g>
		<g>
			<path class="st5" d="M191.5,150.6c4.6-3.7,10.4-6.1,16.7-7.1c1.2-0.2,0.7-1.7-0.5-1.6c-6.6,1-12.8,3.6-17.6,7.5
				C189.2,150.2,190.6,151.4,191.5,150.6L191.5,150.6z"/>
		</g>
		<g>
			<path class="st5" d="M200.6,151.2c4.2-1.9,8.4-3.9,12.5-5.8c1.1-0.5,0.1-1.9-1-1.4c-4.2,1.9-8.4,3.9-12.5,5.8
				C198.5,150.3,199.5,151.7,200.6,151.2L200.6,151.2z"/>
		</g>
		<g>
			<path class="st5" d="M211.9,150.6c3.2-2.6,7-4.5,11.2-5.7c1.2-0.3,0.7-1.9-0.5-1.6c-4.5,1.3-8.6,3.4-12.1,6.2
				C209.6,150.2,211,151.4,211.9,150.6L211.9,150.6z"/>
		</g>
		<g>
			<path class="st5" d="M173.7,151.6c3.6,4.1,7.2,8.3,10.8,12.4c0.7,0.8,2.4,0,1.7-0.8c-3.6-4.1-7.2-8.3-10.8-12.4
				C174.6,149.9,172.9,150.7,173.7,151.6L173.7,151.6z"/>
		</g>
		<g>
			<path class="st5" d="M186.4,151c2.3,5.1,5.7,9.7,10.1,13.7c0.9,0.8,2.2-0.4,1.4-1.1c-4.2-3.8-7.5-8.1-9.6-12.9
				C187.9,149.6,186,150,186.4,151L186.4,151z"/>
		</g>
		<g>
			<path class="st5" d="M195.4,153.4c1.3,4,4.1,7.5,7.9,10.2c1,0.7,2.4-0.5,1.4-1.1c-3.6-2.5-6.2-5.7-7.4-9.4
				C196.9,152,195,152.4,195.4,153.4L195.4,153.4z"/>
		</g>
		<g>
			<path class="st5" d="M208.1,155.7c1.6,1.5,3.1,3,4.7,4.5c0.8,0.8,2.2-0.4,1.4-1.1c-1.6-1.5-3.1-3-4.7-4.5
				C208.7,153.8,207.3,155,208.1,155.7L208.1,155.7z"/>
		</g>
		<g>
			<path class="st5" d="M219.7,154.3c1.5,2.2,3.4,4.2,5.6,6c0.9,0.7,2.3-0.4,1.4-1.1c-2.1-1.7-3.9-3.6-5.3-5.6
				C220.8,152.6,219.1,153.4,219.7,154.3L219.7,154.3z"/>
		</g>
		<g>
			<path class="st5" d="M149.3,177.8c10.5,8.1,21.4,16,28.7,26c0.6,0.8,2.1,0.1,1.6-0.7c-7.4-10.1-18.4-18.1-29-26.3
				C149.8,176.2,148.5,177.2,149.3,177.8L149.3,177.8z"/>
		</g>
		<g>
			<path class="st5" d="M153,177.4c4.4,0.8,8.8,1.6,13.2,2.3c1.2,0.2,1.8-1.3,0.5-1.6c-4.4-0.8-8.8-1.6-13.2-2.3
				C152.3,175.6,151.7,177.1,153,177.4L153,177.4z"/>
		</g>
		<g>
			<path class="st5" d="M157.9,184.1c5.5-0.4,11,0.2,16.2,1.9c1.2,0.4,1.7-1.2,0.5-1.6c-5.3-1.7-11-2.4-16.7-1.9
				C156.6,182.6,156.6,184.2,157.9,184.1L157.9,184.1z"/>
		</g>
		<g>
			<path class="st5" d="M164.9,190c5.2-0.5,10.4,0.1,15.2,1.8c1.1,0.4,2.1-1,1-1.4c-5.1-1.8-10.6-2.5-16.2-2
				C163.7,188.5,163.7,190.1,164.9,190L164.9,190z"/>
		</g>
		<g>
			<path class="st5" d="M171,195.6c3.2,0.6,6.4,0.9,9.6,0.8c1.3,0,1.3-1.7,0-1.6c-3.1,0.1-6.1-0.1-9.1-0.7
				C170.3,193.8,169.7,195.3,171,195.6L171,195.6z"/>
		</g>
		<g>
			<path class="st5" d="M151.4,178.8c0,3.7,0,7.3,0,11c0,1,2,1,2,0c0-3.7,0-7.3,0-11C153.4,177.8,151.4,177.8,151.4,178.8
				L151.4,178.8z"/>
		</g>
		<g>
			<path class="st5" d="M156.1,186.5c0,2.6,0,5.2,0,7.7c0,1,2,1,2,0c0-2.6,0-5.2,0-7.7C158.1,185.5,156.1,185.5,156.1,186.5
				L156.1,186.5z"/>
		</g>
		<g>
			<path class="st5" d="M162.4,191c0,2.6,0,5.2,0,7.7c0,1,2,1,2,0c0-2.6,0-5.2,0-7.7C164.3,190,162.4,190,162.4,191L162.4,191z"/>
		</g>
		<g>
			<path class="st5" d="M167.1,195.6c0,1.5,0,3,0,4.5c0,1,2,1,2,0c0-1.5,0-3,0-4.5C169,194.5,167.1,194.5,167.1,195.6L167.1,195.6z"
				/>
		</g>
		<g>
			<path class="st5" d="M69.5,169.5c9.2-1.4,18.6-2.1,28-2.1c4.6,0,9.2,0.2,13.8,0.6c2.4,0.2,4.7,0.4,7,0.8c1.5,0.2,3.5,0.6,4.1,1.9
				c0.4,1,2.3,0.6,1.9-0.4c-1.2-3.1-6.3-3.2-9.5-3.5c-5.1-0.5-10.2-0.9-15.3-0.9C89.3,165.7,79,166.4,69,168
				C67.8,168.2,68.3,169.7,69.5,169.5L69.5,169.5z"/>
		</g>
		<g>
			<path class="st5" d="M71.2,162.9c5.4,2.2,10.9,4,16.5,5.6c1.2,0.3,1.7-1.2,0.5-1.6c-5.5-1.5-10.9-3.3-16.1-5.4
				C71,161,70,162.4,71.2,162.9L71.2,162.9z"/>
		</g>
		<g>
			<path class="st5" d="M85.4,159.6c5.1,2.4,10,5.1,14.6,8.1c1,0.6,2-0.8,1-1.4c-4.7-3-9.5-5.6-14.6-8.1
				C85.3,157.6,84.3,159,85.4,159.6L85.4,159.6z"/>
		</g>
		<g>
			<path class="st5" d="M95.4,158.5c4.5,2.1,8.4,4.9,11.5,8.3c0.8,0.8,2.2-0.3,1.4-1.1c-3.3-3.4-7.3-6.3-11.9-8.5
				C95.3,156.6,94.3,157.9,95.4,158.5L95.4,158.5z"/>
		</g>
		<g>
			<path class="st5" d="M106.3,157.4c2.6,4,5.6,7.8,9.2,11.3c0.8,0.8,2.2-0.3,1.4-1.1c-3.4-3.4-6.4-7.1-8.8-11
				C107.4,155.7,105.7,156.5,106.3,157.4L106.3,157.4z"/>
		</g>
		<g>
			<path class="st5" d="M78.2,176.7c6.1-1.9,11.8-4.7,16.8-8.1c1-0.7-0.4-1.8-1.4-1.1c-4.7,3.3-10.1,5.9-15.9,7.7
				C76.5,175.6,77,177.1,78.2,176.7L78.2,176.7z"/>
		</g>
		<g>
			<path class="st5" d="M89.5,178c5.2-3.1,10.1-6.5,14.8-10.1c0.9-0.7-0.5-1.8-1.4-1.1c-4.6,3.5-9.4,6.8-14.4,9.9
				C87.5,177.2,88.5,178.6,89.5,178L89.5,178z"/>
		</g>
		<g>
			<path class="st5" d="M99,178.4c4.4-3.5,9.3-6.5,14.5-9.1c1.1-0.5,0.1-1.9-1-1.4c-5.4,2.6-10.4,5.8-14.9,9.4
				C96.7,177.9,98.1,179.1,99,178.4L99,178.4z"/>
		</g>
		<g>
			<path class="st5" d="M107.6,177.7c3.4-2.8,7.5-5,12-6.4c1.2-0.4,0.7-1.9-0.5-1.6c-4.8,1.6-9.2,3.9-12.9,6.8
				C105.3,177.3,106.7,178.4,107.6,177.7L107.6,177.7z"/>
		</g>
		<g>
			<path class="st5" d="M68.2,103.1c15.7,2,30.9,6.6,44.5,13.5c3.9,2,7.7,4.1,11.3,6.5c1,0.6,2.4-0.5,1.4-1.1
				c-12.8-8.2-27.5-14.4-43.2-18c-4.4-1-9-1.8-13.5-2.4C67.5,101.4,67,103,68.2,103.1L68.2,103.1z"/>
		</g>
		<g>
			<path class="st5" d="M79.5,96.5c2.8,2.4,5.7,4.8,8.5,7.2c0.9,0.7,2.3-0.4,1.4-1.1c-2.8-2.4-5.7-4.8-8.5-7.2
				C80,94.6,78.6,95.7,79.5,96.5L79.5,96.5z"/>
		</g>
		<g>
			<path class="st5" d="M91.1,97.3c1.8,3.7,3.7,7.3,5.5,11c0.5,0.9,2.4,0.5,1.9-0.4c-1.8-3.7-3.7-7.3-5.5-11
				C92.6,96,90.7,96.4,91.1,97.3L91.1,97.3z"/>
		</g>
		<g>
			<path class="st5" d="M99,99.9c1.3,5.3,3.6,10.4,6.9,15.1c0.6,0.9,2.3,0.1,1.7-0.8c-3.2-4.6-5.4-9.5-6.7-14.7
				C100.6,98.5,98.7,98.9,99,99.9L99,99.9z"/>
		</g>
		<g>
			<path class="st5" d="M108.3,105.1c1.1,4.1,2.7,8,4.8,11.8c0.5,0.9,2.2,0.1,1.7-0.8c-2-3.7-3.6-7.5-4.6-11.4
				C110,103.7,108.1,104.1,108.3,105.1L108.3,105.1z"/>
		</g>
		<g>
			<path class="st5" d="M116.9,110.3c0.5,3,1,6,1.5,9c0.2,1,2.1,0.6,1.9-0.4c-0.5-3-1-6-1.5-9C118.6,108.8,116.7,109.2,116.9,110.3
				L116.9,110.3z"/>
		</g>
		<g>
			<path class="st5" d="M73.2,110.2c8.1,0,16.2,0,24.3,0c1.3,0,1.3-1.6,0-1.6c-8.1,0-16.2,0-24.3,0
				C71.9,108.6,71.9,110.2,73.2,110.2L73.2,110.2z"/>
		</g>
		<g>
			<path class="st5" d="M88.1,114c6.4,0.3,12.7,0.1,19.1-0.7c1.2-0.2,0.7-1.7-0.5-1.6c-6.1,0.7-12.3,1-18.5,0.7
				C86.8,112.4,86.8,114,88.1,114L88.1,114z"/>
		</g>
		<g>
			<path class="st5" d="M100.6,119.2c5-0.4,9.9-0.8,14.9-1.2c1.2-0.1,1.3-1.7,0-1.6c-5,0.4-9.9,0.8-14.9,1.2
				C99.4,117.7,99.4,119.3,100.6,119.2L100.6,119.2z"/>
		</g>
		<g>
			<path class="st5" d="M110.3,125c3.8-0.6,7.6-0.8,11.5-0.5c1.3,0.1,1.3-1.5,0-1.6c-4-0.3-8.1-0.1-12,0.6
				C108.5,123.6,109,125.2,110.3,125L110.3,125z"/>
		</g>
		<g>
			<path class="st5" d="M195.2,95c8.9-6.8,21-10.4,33.2-10c1.3,0,1.3-1.6,0-1.6c-12.7-0.4-25.3,3.4-34.6,10.5
				C192.9,94.5,194.3,95.7,195.2,95L195.2,95z"/>
		</g>
		<g>
			<path class="st5" d="M194.1,93.3c0-3.2,0-6.4,0-9.7c0-1-2-1-2,0c0,3.2,0,6.4,0,9.7C192.1,94.3,194.1,94.3,194.1,93.3L194.1,93.3z
				"/>
		</g>
		<g>
			<path class="st5" d="M198.5,89.9c-0.5-2.6,0.8-5.2,3.3-6.8c1-0.6-0.4-1.8-1.4-1.1c-3.1,2-4.5,5.2-3.8,8.4
				C196.8,91.3,198.7,90.9,198.5,89.9L198.5,89.9z"/>
		</g>
		<g>
			<path class="st5" d="M206.7,87.9c-0.4-2,0.1-4.1,1.5-5.8c0.7-0.9-1-1.7-1.7-0.8c-1.6,2.1-2.1,4.6-1.7,7
				C205,89.4,206.9,88.9,206.7,87.9L206.7,87.9z"/>
		</g>
		<g>
			<path class="st5" d="M217.7,85.8c0.3-1.8,1.4-3.2,3.3-4.2c1.1-0.5,0.1-1.9-1-1.4c-2.3,1.1-3.8,3-4.2,5.1
				C215.6,86.4,217.5,86.8,217.7,85.8L217.7,85.8z"/>
		</g>
		<g>
			<path class="st5" d="M196.6,95.2c5.9,2.8,12.8,3.8,19.6,3c1.2-0.2,0.7-1.7-0.5-1.6c-6.2,0.8-12.6-0.3-18-2.8
				C196.5,93.3,195.5,94.7,196.6,95.2L196.6,95.2z"/>
		</g>
		<g>
			<path class="st5" d="M206.7,90.2c4.2,2.1,9,3.2,13.9,3.3c1.3,0,1.3-1.6,0-1.6c-4.6,0-9-1.1-12.9-3.1
				C206.6,88.3,205.6,89.6,206.7,90.2L206.7,90.2z"/>
		</g>
		<g>
			<path class="st5" d="M220.1,87.5c2.8,1.2,5.8,2.1,8.8,2.7c1.2,0.2,1.7-1.3,0.5-1.6c-2.9-0.6-5.7-1.4-8.4-2.6
				C220,85.6,219,87,220.1,87.5L220.1,87.5z"/>
		</g>
		<g>
			<path class="st5" d="M179.2,96.5c0-1.7,0-3.4,0-5.2c0-1-2-1-2,0c0,1.7,0,3.4,0,5.2C177.3,97.5,179.2,97.5,179.2,96.5L179.2,96.5z
				"/>
		</g>
		<g>
			<path class="st5" d="M184.7,95.2c0-1.9,0-3.9,0-5.8c0-1-2-1-2,0c0,1.9,0,3.9,0,5.8C182.7,96.3,184.7,96.3,184.7,95.2L184.7,95.2z
				"/>
		</g>
		<g>
			<path class="st5" d="M191,93.9c0-0.2,0-0.4,0-0.6c0-0.4-0.5-0.8-1-0.8c-0.5,0-1,0.4-1,0.8c0,0.2,0,0.4,0,0.6c0,0.4,0.5,0.8,1,0.8
				C190.5,94.7,191,94.4,191,93.9L191,93.9z"/>
		</g>
		<g>
			<path class="st5" d="M100.8,52.7c6.6,9.8,14.6,19,23.9,27.2c0.9,0.8,2.2-0.4,1.4-1.1c-9.2-8.2-17.1-17.2-23.6-26.9
				C101.9,50.9,100.2,51.8,100.8,52.7L100.8,52.7z"/>
		</g>
		<g>
			<path class="st5" d="M111.5,54c-0.5,3.6,0,7.2,1.3,10.6c0.4,1,2.3,0.6,1.9-0.4c-1.3-3.3-1.7-6.7-1.2-10.2
				C113.6,52.9,111.6,52.9,111.5,54L111.5,54z"/>
		</g>
		<g>
			<path class="st5" d="M118.3,57.8c-0.8,5.1-0.9,10.3-0.6,15.5c0.1,1,2,1,2,0c-0.4-5.2-0.2-10.3,0.6-15.5
				C120.4,56.8,118.4,56.8,118.3,57.8L118.3,57.8z"/>
		</g>
		<g>
			<path class="st5" d="M122.4,63.6c0,3.9-0.4,7.7-1,11.6c-0.2,1,1.8,1,2,0c0.6-3.8,0.9-7.7,1-11.6
				C124.4,62.6,122.4,62.6,122.4,63.6L122.4,63.6z"/>
		</g>
		<g>
			<path class="st5" d="M96.9,59.3c5.6,2.4,10.7,5.4,15.4,8.9c0.9,0.7,2.3-0.4,1.4-1.1c-4.8-3.6-10.1-6.7-15.8-9.2
				C96.8,57.4,95.8,58.8,96.9,59.3L96.9,59.3z"/>
		</g>
		<g>
			<path class="st5" d="M104.7,69.7c4.8,2.7,9.5,5.5,14.3,8.2c1,0.6,2-0.8,1-1.4c-4.8-2.7-9.5-5.5-14.3-8.2
				C104.6,67.7,103.6,69.1,104.7,69.7L104.7,69.7z"/>
		</g>
		<g>
			<path class="st5" d="M113.3,80c5.2,2.4,10.4,4.7,15.7,7.1c1.1,0.5,2.1-0.9,1-1.4c-5.2-2.4-10.4-4.7-15.7-7.1
				C113.2,78.1,112.2,79.5,113.3,80L113.3,80z"/>
		</g>
	</g>
	<g>
		<path class="st6" d="M124.2,200.9c2.9,0.5,5.8,0.4,8.7-0.5c2.6-0.8,1.5-4.8-1.1-4c-2.1,0.7-4.3,0.9-6.5,0.5
			C122.7,196.4,121.5,200.4,124.2,200.9L124.2,200.9z"/>
	</g>
	<g>
		<path class="st6" d="M139.7,212.7c2.5,0,5,0,7.5,0c2.7,0,2.7-4.2,0-4.2c-2.5,0-5,0-7.5,0C137.1,208.6,137.1,212.7,139.7,212.7
			L139.7,212.7z"/>
	</g>
	<g>
		<path class="st6" d="M132.8,224.5c1.9-0.3,3.9-0.7,5.8-1c1.1-0.2,1.7-1.6,1.5-2.6c-0.3-1.2-1.5-1.7-2.6-1.5
			c-1.9,0.3-3.9,0.7-5.8,1c-1.1,0.2-1.7,1.6-1.5,2.6C130.6,224.2,131.7,224.7,132.8,224.5L132.8,224.5z"/>
	</g>
	<g>
		<path class="st6" d="M144.9,233.2c1.3-0.6,2.8-0.8,4.3-0.5c2.6,0.5,3.7-3.5,1.1-4c-2.6-0.5-5.1-0.2-7.5,0.9
			c-1,0.5-1.3,1.9-0.7,2.9C142.7,233.5,143.9,233.7,144.9,233.2L144.9,233.2z"/>
	</g>
	<g>
		<path class="st6" d="M151.4,221.9c1.7,0,3.3,0,5,0c2.7,0,2.7-4.2,0-4.2c-1.7,0-3.3,0-5,0C148.7,217.8,148.7,221.9,151.4,221.9
			L151.4,221.9z"/>
	</g>
	<g>
		<path class="st6" d="M162,231.9c1.7-0.5,3.4-1,5-1.6c2.6-0.8,1.5-4.8-1.1-4c-1.7,0.5-3.4,1-5,1.6
			C158.3,228.6,159.4,232.7,162,231.9L162,231.9z"/>
	</g>
	<g>
		<path class="st6" d="M157,214.4c1.7-0.3,3.3-0.7,5-1c1.1-0.2,1.7-1.5,1.5-2.6c-0.3-1.1-1.5-1.7-2.6-1.5c-1.7,0.3-3.3,0.7-5,1
			c-1.1,0.2-1.7,1.5-1.5,2.6C154.8,214.1,155.9,214.7,157,214.4L157,214.4z"/>
	</g>
	<g>
		<path class="st6" d="M142.3,202.9c2.2-0.3,4.5-0.6,6.7-0.8c1.1-0.1,2.1-0.9,2.1-2.1c0-1-1-2.2-2.1-2.1c-2.2,0.3-4.5,0.6-6.7,0.8
			c-1.1,0.1-2.1,0.9-2.1,2.1C140.2,201.8,141.1,203,142.3,202.9L142.3,202.9z"/>
	</g>
	<g>
		<path class="st6" d="M124.7,210.2c1.4,0,2.8,0,4.2,0c2.7,0,2.7-4.2,0-4.2c-1.4,0-2.8,0-4.2,0C122,206.1,122,210.2,124.7,210.2
			L124.7,210.2z"/>
	</g>
	<g>
		<path class="st6" d="M133.1,234.5c0.6-0.6,1.7-0.6,2.3,0c-0.2-0.2,0.3,0.5,0.1,0.1c0.1,0.4,0.2,0.4,0.1,0.3c0-0.2,0-0.1,0,0.3
			c0-0.2,0-0.1-0.1,0.3c0,0.2-0.1,0.3-0.3,0.5c-0.2,0.3-0.5,0.5-0.8,0.5c0.4,0-0.4-0.2,0,0c0.1,0,0.2,0.1,0.3,0.1
			c-0.1,0-0.1-0.1-0.2-0.1c0.2,0,0.4,0.2,0.5,0.3c0.9,0.5,2.3,0.3,2.9-0.7c0.5-1,0.3-2.3-0.7-2.9c-0.9-0.5-1.9-0.9-2.9-0.9
			c-1.4,0.1-2.6,1-2.8,2.4c-0.1,1,0.2,2,0.9,2.7c1,1,2.6,0.9,3.6,0c0.8-0.8,0.8-2.2,0-3C135.2,233.7,133.9,233.7,133.1,234.5
			L133.1,234.5z"/>
	</g>
</g>
</svg>
